<?xml version="1.0" encoding="UTF-8"?>
<svg version="1.1" xmlns="http://www.w3.org/2000/svg" width="220" height="234">
<path d="M0 0 C1.20632188 0.70542072 2.41328621 1.40974378 3.62084961 2.11303711 C6.7518886 3.94124737 9.87289198 5.78590418 12.99151611 7.63519287 C15.48038482 9.1083186 17.97504875 10.57146422 20.46984863 12.03451538 C52.00958674 30.53843562 52.00958674 30.53843562 58.875 36.75 C59.761875 37.430625 60.64875 38.11125 61.5625 38.8125 C65.07593692 43.27551447 65.79391415 48.25691513 66.875 53.75 C67.13441879 54.81865044 67.13441879 54.81865044 67.39907837 55.90888977 C68.02661653 59.65510549 68.04718255 63.35801371 68.06787109 67.14526367 C68.08013733 68.39510544 68.08013733 68.39510544 68.09265137 69.67019653 C68.11740131 72.41944682 68.13399553 75.16864579 68.1484375 77.91796875 C68.15376118 78.86073481 68.15908485 79.80350086 68.16456985 80.77483559 C68.1912575 85.76597911 68.21064555 90.75709801 68.22509766 95.74829102 C68.23842683 99.86570499 68.26626714 103.98262221 68.30712891 108.09985352 C68.35659731 113.08533584 68.38123587 118.07036835 68.38832474 123.05608559 C68.39501214 124.94860055 68.41016825 126.84110646 68.43421555 128.73348045 C68.67235056 148.60839904 68.67235056 148.60839904 62.875 155.75 C61.885 156.41 60.895 157.07 59.875 157.75 C59.545 158.74 59.215 159.73 58.875 160.75 C57.09326172 161.73852539 57.09326172 161.73852539 54.875 162.75 C53.36226331 163.78921269 51.86610363 164.85276874 50.3828125 165.93359375 C44.71238033 169.94643523 38.78995329 173.39040939 32.75 176.8125 C31.0343425 177.79203274 29.31869323 178.77158041 27.6036377 179.75216675 C26.43425562 180.42075461 25.26457699 181.08882404 24.09460449 181.75637817 C19.10097905 184.60919569 14.14478631 187.52323798 9.19091797 190.44433594 C-18.75221884 206.90137048 -18.75221884 206.90137048 -31.75 207.0625 C-32.50667969 207.09150391 -33.26335937 207.12050781 -34.04296875 207.15039062 C-43.88381667 207.2586233 -51.9964877 202.51815732 -60.375 197.8125 C-61.65201782 197.10287109 -61.65201782 197.10287109 -62.95483398 196.37890625 C-72.20226786 191.20674114 -81.29999282 185.78132938 -90.40576172 180.36523438 C-94.84503065 177.72829747 -99.29275315 175.10642569 -103.75 172.5 C-104.53769775 172.03400391 -105.32539551 171.56800781 -106.13696289 171.08789062 C-106.86778076 170.66185547 -107.59859863 170.23582031 -108.3515625 169.796875 C-108.98658691 169.42401367 -109.62161133 169.05115234 -110.27587891 168.66699219 C-112.12427818 167.66347323 -112.12427818 167.66347323 -114.30224609 167.23535156 C-114.90375488 167.07518555 -115.50526367 166.91501953 -116.125 166.75 C-116.80986725 165.42592331 -117.47370203 164.09090759 -118.125 162.75 C-119.75760714 161.37517293 -121.42725062 160.04352333 -123.125 158.75 C-126.90875069 155.59687443 -127.53260832 153.58786536 -128.125 148.75 C-128.74725605 147.06624835 -129.40044365 145.39232772 -130.125 143.75 C-130.785 143.75 -131.445 143.75 -132.125 143.75 C-132.13331994 131.53601886 -132.109347 119.32256168 -132.0447216 107.10873604 C-132.01571197 101.43663744 -131.99761538 95.76495077 -132.00488281 90.09277344 C-132.01149446 84.61354305 -131.98888589 79.13512533 -131.94644547 73.65606308 C-131.93534702 71.57104258 -131.93458448 69.48593934 -131.94457626 67.40091324 C-132.03457342 45.84969679 -132.03457342 45.84969679 -125.125 38.75 C-124.135 38.255 -124.135 38.255 -123.125 37.75 C-122.815625 37.13125 -122.50625 36.5125 -122.1875 35.875 C-121.06177818 33.62355636 -120.07804864 32.32746237 -118.125 30.75 C-117.53041992 30.61295654 -116.93583984 30.47591309 -116.32324219 30.3347168 C-113.67617887 29.63061677 -111.68583207 28.47715257 -109.328125 27.08203125 C-108.38146973 26.52547852 -107.43481445 25.96892578 -106.45947266 25.39550781 C-105.44159668 24.79061523 -104.4237207 24.18572266 -103.375 23.5625 C-101.20056036 22.28248493 -99.02608004 21.00253897 -96.8515625 19.72265625 C-95.1794873 18.73483154 -95.1794873 18.73483154 -93.47363281 17.72705078 C-84.3819458 12.35926999 -75.26080475 7.04227789 -66.125 1.75 C-65.25488281 1.24355957 -64.38476562 0.73711914 -63.48828125 0.21533203 C-40.15936638 -13.31634282 -23.96720848 -14.26385731 0 0 Z M65.875 142.75 C66.875 144.75 66.875 144.75 66.875 144.75 Z M64.875 145.75 C65.875 147.75 65.875 147.75 65.875 147.75 Z " fill="#FDFEFE" transform="translate(142.125,19.25)"/>
<path d="M0 0 C1.20632188 0.70542072 2.41328621 1.40974378 3.62084961 2.11303711 C6.7518886 3.94124737 9.87289198 5.78590418 12.99151611 7.63519287 C15.48038482 9.1083186 17.97504875 10.57146422 20.46984863 12.03451538 C52.00958674 30.53843562 52.00958674 30.53843562 58.875 36.75 C59.761875 37.430625 60.64875 38.11125 61.5625 38.8125 C65.07593692 43.27551447 65.79391415 48.25691513 66.875 53.75 C67.13441879 54.81865044 67.13441879 54.81865044 67.39907837 55.90888977 C68.02661653 59.65510549 68.04718255 63.35801371 68.06787109 67.14526367 C68.08013733 68.39510544 68.08013733 68.39510544 68.09265137 69.67019653 C68.11740131 72.41944682 68.13399553 75.16864579 68.1484375 77.91796875 C68.15376118 78.86073481 68.15908485 79.80350086 68.16456985 80.77483559 C68.1912575 85.76597911 68.21064555 90.75709801 68.22509766 95.74829102 C68.23842683 99.86570499 68.26626714 103.98262221 68.30712891 108.09985352 C68.35659731 113.08533584 68.38123587 118.07036835 68.38832474 123.05608559 C68.39501214 124.94860055 68.41016825 126.84110646 68.43421555 128.73348045 C68.67235056 148.60839904 68.67235056 148.60839904 62.875 155.75 C61.885 156.41 60.895 157.07 59.875 157.75 C59.545 158.74 59.215 159.73 58.875 160.75 C57.09326172 161.73852539 57.09326172 161.73852539 54.875 162.75 C53.36226331 163.78921269 51.86610363 164.85276874 50.3828125 165.93359375 C44.71238033 169.94643523 38.78995329 173.39040939 32.75 176.8125 C31.0343425 177.79203274 29.31869323 178.77158041 27.6036377 179.75216675 C26.43425562 180.42075461 25.26457699 181.08882404 24.09460449 181.75637817 C19.10097905 184.60919569 14.14478631 187.52323798 9.19091797 190.44433594 C-18.75221884 206.90137048 -18.75221884 206.90137048 -31.75 207.0625 C-32.50667969 207.09150391 -33.26335937 207.12050781 -34.04296875 207.15039062 C-43.88381667 207.2586233 -51.9964877 202.51815732 -60.375 197.8125 C-61.65201782 197.10287109 -61.65201782 197.10287109 -62.95483398 196.37890625 C-72.20226786 191.20674114 -81.29999282 185.78132938 -90.40576172 180.36523438 C-94.84503065 177.72829747 -99.29275315 175.10642569 -103.75 172.5 C-104.53769775 172.03400391 -105.32539551 171.56800781 -106.13696289 171.08789062 C-106.86778076 170.66185547 -107.59859863 170.23582031 -108.3515625 169.796875 C-108.98658691 169.42401367 -109.62161133 169.05115234 -110.27587891 168.66699219 C-112.12427818 167.66347323 -112.12427818 167.66347323 -114.30224609 167.23535156 C-114.90375488 167.07518555 -115.50526367 166.91501953 -116.125 166.75 C-116.80986725 165.42592331 -117.47370203 164.09090759 -118.125 162.75 C-119.75760714 161.37517293 -121.42725062 160.04352333 -123.125 158.75 C-126.90875069 155.59687443 -127.53260832 153.58786536 -128.125 148.75 C-128.74725605 147.06624835 -129.40044365 145.39232772 -130.125 143.75 C-130.785 143.75 -131.445 143.75 -132.125 143.75 C-132.13331994 131.53601886 -132.109347 119.32256168 -132.0447216 107.10873604 C-132.01571197 101.43663744 -131.99761538 95.76495077 -132.00488281 90.09277344 C-132.01149446 84.61354305 -131.98888589 79.13512533 -131.94644547 73.65606308 C-131.93534702 71.57104258 -131.93458448 69.48593934 -131.94457626 67.40091324 C-132.03457342 45.84969679 -132.03457342 45.84969679 -125.125 38.75 C-124.135 38.255 -124.135 38.255 -123.125 37.75 C-122.815625 37.13125 -122.50625 36.5125 -122.1875 35.875 C-121.06177818 33.62355636 -120.07804864 32.32746237 -118.125 30.75 C-117.53041992 30.61295654 -116.93583984 30.47591309 -116.32324219 30.3347168 C-113.67617887 29.63061677 -111.68583207 28.47715257 -109.328125 27.08203125 C-108.38146973 26.52547852 -107.43481445 25.96892578 -106.45947266 25.39550781 C-105.44159668 24.79061523 -104.4237207 24.18572266 -103.375 23.5625 C-101.20056036 22.28248493 -99.02608004 21.00253897 -96.8515625 19.72265625 C-95.1794873 18.73483154 -95.1794873 18.73483154 -93.47363281 17.72705078 C-84.3819458 12.35926999 -75.26080475 7.04227789 -66.125 1.75 C-65.25488281 1.24355957 -64.38476562 0.73711914 -63.48828125 0.21533203 C-40.15936638 -13.31634282 -23.96720848 -14.26385731 0 0 Z M-61 6.4375 C-62.69294105 7.43119084 -64.38588656 8.42487414 -66.07902527 9.41822815 C-67.86285515 10.46664963 -69.64415783 11.51927384 -71.42529297 12.57226562 C-75.22932921 14.81707129 -79.0533552 17.02650552 -82.87890625 19.234375 C-84.81338625 20.35464876 -86.74733354 21.47583434 -88.68096924 22.5975647 C-89.91480565 23.31230287 -91.14959737 24.02539501 -92.38543701 24.73666382 C-112.5393801 36.27264294 -112.5393801 36.27264294 -124.125 55.75 C-124.40462155 58.60871684 -124.54629699 61.24467814 -124.52905273 64.09692383 C-124.53591599 64.90118301 -124.54277924 65.7054422 -124.54985046 66.53407288 C-124.56805152 69.17524205 -124.5642897 71.81581321 -124.55859375 74.45703125 C-124.56315965 76.306373 -124.56846644 78.15571305 -124.57447815 80.00505066 C-124.5833968 83.87591454 -124.58100137 87.74657199 -124.57104492 91.61743164 C-124.55957295 96.5567752 -124.57974586 101.49540194 -124.60896206 106.43465137 C-124.62738881 110.25331588 -124.62701847 114.0718108 -124.62132454 117.89050865 C-124.62117203 119.71041556 -124.62715772 121.53033448 -124.63961601 123.35019875 C-124.7193814 136.91463695 -123.79053328 147.04787606 -113.94921875 157.26953125 C-108.22252685 162.29919841 -101.69992417 165.95880376 -95.125 169.75 C-93.12224154 170.91900654 -91.11964774 172.0882952 -89.1171875 173.2578125 C-82.47283987 177.12323171 -75.80147234 180.94041497 -69.125 184.75 C-68.02349609 185.38035156 -66.92199219 186.01070312 -65.78710938 186.66015625 C-62.63126364 188.4651116 -59.47255181 190.26492049 -56.3125 192.0625 C-55.35851318 192.60753174 -54.40452637 193.15256348 -53.42163086 193.71411133 C-52.53354736 194.2170874 -51.64546387 194.72006348 -50.73046875 195.23828125 C-49.57260864 195.89630737 -49.57260864 195.89630737 -48.39135742 196.56762695 C-40.12524732 200.88010904 -30.50287845 201.04032223 -21.421875 199.203125 C-18.84259585 198.24716839 -16.53827067 197.074525 -14.125 195.75 C-13.55394531 195.44868164 -12.98289062 195.14736328 -12.39453125 194.83691406 C-0.97747189 188.80995727 10.08286484 182.13130166 21.16333008 175.51269531 C26.49706686 172.32862135 31.83727992 169.1766325 37.28613281 166.19287109 C48.38546774 160.08665578 55.24015237 153.75094477 59.875 141.75 C60.94146355 137.54155255 61.03550404 133.4210375 61.05200195 129.10498047 C61.06185875 127.97459099 61.06185875 127.97459099 61.07191467 126.82136536 C61.09156265 124.33663821 61.10329306 121.85197136 61.11328125 119.3671875 C61.11939454 118.08730139 61.11939454 118.08730139 61.12563133 116.78155899 C61.14645883 112.26257829 61.16077322 107.74362762 61.17016602 103.22460938 C61.18120583 98.58130453 61.21558705 93.93848211 61.25533772 89.29534721 C61.28161494 85.7040016 61.28986779 82.11276887 61.29344749 78.5213356 C61.2982871 76.81108478 61.3098252 75.10083809 61.32848549 73.39068222 C61.44840542 61.66920615 61.26969074 50.48866291 52.6875 41.4375 C51.99269531 40.67824219 51.29789063 39.91898438 50.58203125 39.13671875 C43.4251663 32.82669785 34.87386542 28.33512917 26.625 23.625 C24.89528131 22.63336654 23.16556268 21.64173297 21.43585205 20.65008545 C19.6961129 19.65337192 17.95551594 18.65816888 16.21484375 17.66308594 C13.13835397 15.900851 10.0679655 14.12858367 7 12.3515625 C-11.24612647 0.6707041 -11.24612647 0.6707041 -31.6875 -4.5625 C-32.63753906 -4.59988281 -33.58757812 -4.63726563 -34.56640625 -4.67578125 C-44.33623563 -3.5068335 -52.68150165 1.48760156 -61 6.4375 Z M65.875 142.75 C66.875 144.75 66.875 144.75 66.875 144.75 Z M64.875 145.75 C65.875 147.75 65.875 147.75 65.875 147.75 Z " fill="#2A5D84" transform="translate(142.125,19.25)"/>
<path d="M0 0 C12.16589032 6.96985469 21.81499017 18.37150935 30.41015625 29.26953125 C33.80257744 33.39719202 37.62813902 37.06021711 41.46484375 40.76953125 C42.82609375 42.16171875 42.82609375 42.16171875 44.21484375 43.58203125 C49.90696487 49.11603789 54.91894639 52.87326666 63.02734375 53.33203125 C69.42503672 53.21192437 74.2298911 50.99195277 79.84765625 48.08203125 C82.46484375 46.76953125 82.46484375 46.76953125 84.46484375 46.76953125 C81.5653196 53.34755618 75.92308696 57.47221208 69.40234375 60.20703125 C60.38583047 63.09982926 49.73152224 63.45893017 41.046875 59.33984375 C26.78898167 50.66862874 15.97480006 38.59943483 6.04858398 25.38354492 C-1.08168097 15.97781671 -8.58428957 8.12052142 -20.53515625 5.76953125 C-27.28729525 5.40581106 -33.8589333 5.74242003 -40.53515625 6.76953125 C-32.90748 -8.25545519 -12.89894195 -6.26065749 0 0 Z " fill="#474648" transform="translate(84.53515625,88.23046875)"/>
<path d="M0 0 C2.03620687 1.49399853 3.7472296 3.03289244 5.4765625 4.87109375 C5.97800781 5.38542969 6.47945312 5.89976563 6.99609375 6.4296875 C10.39147595 10.19689829 12.375672 13.60105743 12.6015625 18.68359375 C12.5603125 19.40546875 12.5190625 20.12734375 12.4765625 20.87109375 C12.02925781 20.47277344 11.58195312 20.07445313 11.12109375 19.6640625 C10.51652344 19.13425781 9.91195312 18.60445312 9.2890625 18.05859375 C8.69738281 17.53652344 8.10570312 17.01445313 7.49609375 16.4765625 C2.1347087 12.21441693 -1.66274262 11.20265649 -8.46875 11.40234375 C-13.54542733 12.18137352 -16.69421342 14.57836342 -20.5234375 17.87109375 C-21.39355469 18.61746094 -22.26367188 19.36382812 -23.16015625 20.1328125 C-27.07553716 23.59092265 -30.85081043 27.15644578 -34.5234375 30.87109375 C-38.25257418 29.34899714 -40.32974929 27.13077178 -42.9609375 24.12109375 C-43.74210937 23.2290625 -44.52328125 22.33703125 -45.328125 21.41796875 C-46.05257812 20.5775 -46.77703125 19.73703125 -47.5234375 18.87109375 C-48.08289063 18.236875 -48.64234375 17.60265625 -49.21875 16.94921875 C-52.5234375 13.13466518 -52.5234375 13.13466518 -52.5234375 10.87109375 C-50.2224712 11.97896641 -48.14670466 13.12538841 -46.0234375 14.55859375 C-43.71589955 16.05549813 -43.71589955 16.05549813 -41.65625 15.71484375 C-38.77947825 14.5767802 -37.11282834 12.8366741 -34.8984375 10.68359375 C-25.64170558 2.08511832 -12.96241828 -5.7989766 0 0 Z " fill="#2379BE" transform="translate(161.5234375,95.12890625)"/>
<path d="M0 0 C0.639375 0.70125 1.27875 1.4025 1.9375 2.125 C6.62169558 6.73002607 11.74433504 11.30705448 18.5625 11.625 C22.70074718 11.36455088 25.71703112 9.89850834 29.17578125 7.6796875 C31 7 31 7 32.921875 7.58203125 C35.58383683 9.39836986 37.69024862 11.50292115 39.9375 13.8125 C40.77152344 14.66457031 41.60554688 15.51664063 42.46484375 16.39453125 C43.30144531 17.25433594 44.13804688 18.11414063 45 19 C46.66435667 20.66897347 48.33034916 22.33632286 50 24 C44.4210075 23.2392283 44.4210075 23.2392283 42.08203125 21.91015625 C39.44862546 20.7589676 38.1868046 21.09144719 35.4375 21.8125 C34.67308594 22.00457031 33.90867188 22.19664062 33.12109375 22.39453125 C31.40085443 22.88557562 29.69714852 23.43428383 28 24 C21.512456 24.73364795 16.16879953 24.60213654 10.78125 20.671875 C4.6568327 14.92351841 1.91221923 8.03467553 0 0 Z " fill="#277BBF" transform="translate(68,122)"/>
<path d="M0 0 C0.33 0 0.66 0 1 0 C1 27.72 1 55.44 1 84 C0.67 84 0.34 84 0 84 C0 56.28 0 28.56 0 0 Z " fill="#373E89" transform="translate(9,75)"/>
<path d="M0 0 C0.33 0 0.66 0 1 0 C1 26.07 1 52.14 1 79 C0.67 79 0.34 79 0 79 C0 52.93 0 26.86 0 0 Z " fill="#384185" transform="translate(211,78)"/>
<path d="M0 0 C4.9240432 4.7652031 9.44259642 9.88657333 14 15 C13.01 16.485 13.01 16.485 12 18 C1.96479243 8.49921177 1.96479243 8.49921177 -1 3 C-0.67 2.01 -0.34 1.02 0 0 Z " fill="#E1E9EF" transform="translate(108,106)"/>
<path d="M0 0 C3.057952 1.73559438 5.63379989 3.38472619 8 6 C7.34 6.66 6.68 7.32 6 8 C3.69 6.02 1.38 4.04 -1 2 C-0.67 1.34 -0.34 0.68 0 0 Z " fill="#E5EBEF" transform="translate(110,136)"/>
<path d="M0 0 C6.27 0 12.54 0 19 0 C19 0.33 19 0.66 19 1 C12.73 1 6.46 1 0 1 C0 0.67 0 0.34 0 0 Z " fill="#00708F" transform="translate(101,227)"/>
<path d="M0 0 C2.10388569 -0.05402274 4.20816714 -0.09280256 6.3125 -0.125 C8.07013672 -0.15980469 8.07013672 -0.15980469 9.86328125 -0.1953125 C13 0 13 0 16 2 C10.72 1.67 5.44 1.34 0 1 C0 0.67 0 0.34 0 0 Z " fill="#0652A9" transform="translate(104,6)"/>
<path d="M0 0 C2.125 0.375 2.125 0.375 4 1 C2.02 1.33 0.04 1.66 -2 2 C-1.34 1.34 -0.68 0.68 0 0 Z " fill="#0024DA" transform="translate(96,8)"/>
<path d="M0 0 C0.33 0 0.66 0 1 0 C1 1.65 1 3.3 1 5 C0.67 5 0.34 5 0 5 C0 3.35 0 1.7 0 0 Z " fill="#1933B2" transform="translate(210,157)"/>
<path d="M0 0 C0.33 0 0.66 0 1 0 C1 1.65 1 3.3 1 5 C0.67 5 0.34 5 0 5 C0 3.35 0 1.7 0 0 Z " fill="#0C51A1" transform="translate(210,73)"/>
<path d="M0 0 C0.66 0.33 1.32 0.66 2 1 C1.01 1 0.02 1 -1 1 C-0.67 0.67 -0.34 0.34 0 0 Z " fill="#0035CA" transform="translate(135,219)"/>
<path d="M0 0 C0.66 0.33 1.32 0.66 2 1 C1.01 1 0.02 1 -1 1 C-0.67 0.67 -0.34 0.34 0 0 Z " fill="#0035CA" transform="translate(147,212)"/>
<path d="M0 0 C4 1 4 1 4 1 Z " fill="#20409F" transform="translate(100,7)"/>
<path d="M0 0 C3 1 3 1 3 1 Z " fill="#113EC0" transform="translate(120,226)"/>
<path d="M0 0 C3 1 3 1 3 1 Z " fill="#2A2AAA" transform="translate(98,226)"/>
<path d="M0 0 C3 1 3 1 3 1 Z " fill="#001CE2" transform="translate(123,225)"/>
<path d="" fill="#0047B8" transform="translate(0,0)"/>
<path d="" fill="#155C8E" transform="translate(0,0)"/>
<path d="" fill="#1540AA" transform="translate(0,0)"/>
<path d="" fill="#0047B8" transform="translate(0,0)"/>
<path d="M0 0 C3 1 3 1 3 1 Z " fill="#0047B8" transform="translate(124,9)"/>
<path d="M0 0 C3 1 3 1 3 1 Z " fill="#0047B8" transform="translate(121,8)"/>
<path d="M0 0 C2 1 2 1 2 1 Z " fill="#006A95" transform="translate(95,225)"/>
<path d="M0 0 C2 1 2 1 2 1 Z " fill="#2020BF" transform="translate(126,224)"/>
<path d="M0 0 C2 1 2 1 2 1 Z " fill="#006A95" transform="translate(93,224)"/>
<path d="M0 0 C2 1 2 1 2 1 Z " fill="#008080" transform="translate(128,223)"/>
<path d="M0 0 C2 1 2 1 2 1 Z " fill="#006A95" transform="translate(130,222)"/>
<path d="M0 0 C2 1 2 1 2 1 Z " fill="#0040BF" transform="translate(89,222)"/>
<path d="M0 0 C2 1 2 1 2 1 Z " fill="#002AD4" transform="translate(132,221)"/>
<path d="M0 0 C2 1 2 1 2 1 Z " fill="#008080" transform="translate(87,221)"/>
<path d="M0 0 C2 1 2 1 2 1 Z " fill="#002AD4" transform="translate(85,220)"/>
<path d="M0 0 C2 1 2 1 2 1 Z " fill="#008080" transform="translate(137,218)"/>
<path d="M0 0 C2 1 2 1 2 1 Z " fill="#002AD4" transform="translate(139,217)"/>
<path d="M0 0 C2 1 2 1 2 1 Z " fill="#006A95" transform="translate(80,217)"/>
<path d="M0 0 C2 1 2 1 2 1 Z " fill="#2020BF" transform="translate(78,216)"/>
<path d="M0 0 C2 1 2 1 2 1 Z " fill="#008080" transform="translate(142,215)"/>
<path d="M0 0 C2 1 2 1 2 1 Z " fill="#002AD4" transform="translate(144,214)"/>
<path d="M0 0 C2 1 2 1 2 1 Z " fill="#008080" transform="translate(75,214)"/>
<path d="M0 0 C2 1 2 1 2 1 Z " fill="#006A95" transform="translate(73,213)"/>
<path d="M0 0 C2 1 2 1 2 1 Z " fill="#002AD4" transform="translate(71,212)"/>
<path d="M0 0 C2 1 2 1 2 1 Z " fill="#008080" transform="translate(149,211)"/>
<path d="M0 0 C2 1 2 1 2 1 Z " fill="#002AD4" transform="translate(151,210)"/>
<path d="M0 0 C2 1 2 1 2 1 Z " fill="#006A95" transform="translate(68,210)"/>
<path d="M0 0 C2 1 2 1 2 1 Z " fill="#2020BF" transform="translate(66,209)"/>
<path d="M0 0 C2 1 2 1 2 1 Z " fill="#008080" transform="translate(154,208)"/>
<path d="M0 0 C2 1 2 1 2 1 Z " fill="#002AD4" transform="translate(156,207)"/>
<path d="M0 0 C2 1 2 1 2 1 Z " fill="#008080" transform="translate(63,207)"/>
<path d="M0 0 C2 1 2 1 2 1 Z " fill="#002AD4" transform="translate(61,206)"/>
<path d="M0 0 C2 1 2 1 2 1 Z " fill="#0040BF" transform="translate(159,205)"/>
<path d="M0 0 C2 1 2 1 2 1 Z " fill="#002AD4" transform="translate(59,205)"/>
<path d="M0 0 C2 1 2 1 2 1 Z " fill="#0040BF" transform="translate(161,204)"/>
<path d="M0 0 C2 1 2 1 2 1 Z " fill="#002AD4" transform="translate(163,203)"/>
<path d="M0 0 C2 1 2 1 2 1 Z " fill="#008080" transform="translate(56,203)"/>
<path d="M0 0 C2 1 2 1 2 1 Z " fill="#2020BF" transform="translate(54,202)"/>
<path d="M0 0 C2 1 2 1 2 1 Z " fill="#0040BF" transform="translate(166,201)"/>
<path d="M0 0 C2 1 2 1 2 1 Z " fill="#002AD4" transform="translate(168,200)"/>
<path d="M0 0 C2 1 2 1 2 1 Z " fill="#0040BF" transform="translate(51,200)"/>
<path d="M0 0 C2 1 2 1 2 1 Z " fill="#0040BF" transform="translate(49,199)"/>
<path d="M0 0 C2 1 2 1 2 1 Z " fill="#002AD4" transform="translate(47,198)"/>
<path d="M0 0 C2 1 2 1 2 1 Z " fill="#0040BF" transform="translate(173,197)"/>
<path d="M0 0 C2 1 2 1 2 1 Z " fill="#002AD4" transform="translate(175,196)"/>
<path d="M0 0 C2 1 2 1 2 1 Z " fill="#0040BF" transform="translate(44,196)"/>
<path d="M0 0 C2 1 2 1 2 1 Z " fill="#002AD4" transform="translate(177,195)"/>
<path d="M0 0 C2 1 2 1 2 1 Z " fill="#002AD4" transform="translate(42,195)"/>
<path d="M0 0 C2 1 2 1 2 1 Z " fill="#008080" transform="translate(180,193)"/>
<path d="M0 0 C2 1 2 1 2 1 Z " fill="#002AD4" transform="translate(39,193)"/>
<path d="M0 0 C2 1 2 1 2 1 Z " fill="#0040BF" transform="translate(37,192)"/>
<path d="M0 0 C2 1 2 1 2 1 Z " fill="#002AD4" transform="translate(35,191)"/>
<path d="M0 0 C2 1 2 1 2 1 Z " fill="#008080" transform="translate(185,190)"/>
<path d="M0 0 C2 1 2 1 2 1 Z " fill="#002AD4" transform="translate(187,189)"/>
<path d="M0 0 C2 1 2 1 2 1 Z " fill="#0040BF" transform="translate(32,189)"/>
<path d="M0 0 C2 1 2 1 2 1 Z " fill="#002AD4" transform="translate(30,188)"/>
<path d="M0 0 C2 1 2 1 2 1 Z " fill="#0040BF" transform="translate(190,187)"/>
<path d="M0 0 C2 1 2 1 2 1 Z " fill="#0040BF" transform="translate(194,184)"/>
<path d="" fill="#008080" transform="translate(0,0)"/>
<path d="" fill="#002AD4" transform="translate(0,0)"/>
<path d="" fill="#006A95" transform="translate(0,0)"/>
<path d="" fill="#006A95" transform="translate(0,0)"/>
<path d="M0 0 C2 1 2 1 2 1 Z " fill="#002AD4" transform="translate(192,48)"/>
<path d="M0 0 C2 1 2 1 2 1 Z " fill="#0040BF" transform="translate(28,47)"/>
<path d="M0 0 C2 1 2 1 2 1 Z " fill="#0040BF" transform="translate(189,46)"/>
<path d="M0 0 C2 1 2 1 2 1 Z " fill="#002AD4" transform="translate(31,45)"/>
<path d="M0 0 C2 1 2 1 2 1 Z " fill="#002AD4" transform="translate(186,44)"/>
<path d="M0 0 C2 1 2 1 2 1 Z " fill="#0040BF" transform="translate(33,44)"/>
<path d="M0 0 C2 1 2 1 2 1 Z " fill="#002AD4" transform="translate(184,43)"/>
<path d="M0 0 C2 1 2 1 2 1 Z " fill="#002AD4" transform="translate(36,42)"/>
<path d="M0 0 C2 1 2 1 2 1 Z " fill="#002AD4" transform="translate(38,41)"/>
<path d="M0 0 C2 1 2 1 2 1 Z " fill="#006A95" transform="translate(179,40)"/>
<path d="M0 0 C2 1 2 1 2 1 Z " fill="#002AD4" transform="translate(40,40)"/>
<path d="M0 0 C2 1 2 1 2 1 Z " fill="#0040BF" transform="translate(177,39)"/>
<path d="M0 0 C2 1 2 1 2 1 Z " fill="#002AD4" transform="translate(43,38)"/>
<path d="M0 0 C2 1 2 1 2 1 Z " fill="#002AD4" transform="translate(174,37)"/>
<path d="M0 0 C2 1 2 1 2 1 Z " fill="#008080" transform="translate(45,37)"/>
<path d="M0 0 C2 1 2 1 2 1 Z " fill="#002AD4" transform="translate(172,36)"/>
<path d="M0 0 C2 1 2 1 2 1 Z " fill="#002AD4" transform="translate(170,35)"/>
<path d="M0 0 C2 1 2 1 2 1 Z " fill="#002AD4" transform="translate(48,35)"/>
<path d="M0 0 C2 1 2 1 2 1 Z " fill="#002AD4" transform="translate(50,34)"/>
<path d="M0 0 C2 1 2 1 2 1 Z " fill="#002AD4" transform="translate(167,33)"/>
<path d="M0 0 C2 1 2 1 2 1 Z " fill="#008080" transform="translate(52,33)"/>
<path d="M0 0 C2 1 2 1 2 1 Z " fill="#0040BF" transform="translate(165,32)"/>
<path d="M0 0 C2 1 2 1 2 1 Z " fill="#2020BF" transform="translate(55,31)"/>
<path d="M0 0 C2 1 2 1 2 1 Z " fill="#002AD4" transform="translate(162,30)"/>
<path d="M0 0 C2 1 2 1 2 1 Z " fill="#008080" transform="translate(57,30)"/>
<path d="M0 0 C2 1 2 1 2 1 Z " fill="#002AD4" transform="translate(160,29)"/>
<path d="M0 0 C2 1 2 1 2 1 Z " fill="#0040BF" transform="translate(158,28)"/>
<path d="M0 0 C2 1 2 1 2 1 Z " fill="#002AD4" transform="translate(60,28)"/>
<path d="M0 0 C2 1 2 1 2 1 Z " fill="#002AD4" transform="translate(62,27)"/>
<path d="M0 0 C2 1 2 1 2 1 Z " fill="#002AD4" transform="translate(155,26)"/>
<path d="M0 0 C2 1 2 1 2 1 Z " fill="#008080" transform="translate(64,26)"/>
<path d="M0 0 C2 1 2 1 2 1 Z " fill="#008080" transform="translate(153,25)"/>
<path d="M0 0 C2 1 2 1 2 1 Z " fill="#2020BF" transform="translate(67,24)"/>
<path d="M0 0 C2 1 2 1 2 1 Z " fill="#002AD4" transform="translate(150,23)"/>
<path d="M0 0 C2 1 2 1 2 1 Z " fill="#006A95" transform="translate(69,23)"/>
<path d="M0 0 C2 1 2 1 2 1 Z " fill="#002AD4" transform="translate(148,22)"/>
<path d="M0 0 C2 1 2 1 2 1 Z " fill="#0040BF" transform="translate(146,21)"/>
<path d="M0 0 C2 1 2 1 2 1 Z " fill="#002AD4" transform="translate(72,21)"/>
<path d="M0 0 C2 1 2 1 2 1 Z " fill="#002AD4" transform="translate(74,20)"/>
<path d="M0 0 C2 1 2 1 2 1 Z " fill="#2020BF" transform="translate(143,19)"/>
<path d="M0 0 C2 1 2 1 2 1 Z " fill="#008080" transform="translate(76,19)"/>
<path d="M0 0 C2 1 2 1 2 1 Z " fill="#008080" transform="translate(141,18)"/>
<path d="M0 0 C2 1 2 1 2 1 Z " fill="#002AD4" transform="translate(138,16)"/>
<path d="M0 0 C2 1 2 1 2 1 Z " fill="#002AD4" transform="translate(81,16)"/>
<path d="M0 0 C2 1 2 1 2 1 Z " fill="#002AD4" transform="translate(136,15)"/>
<path d="M0 0 C2 1 2 1 2 1 Z " fill="#002AD4" transform="translate(83,15)"/>
<path d="M0 0 C2 1 2 1 2 1 Z " fill="#008080" transform="translate(134,14)"/>
<path d="M0 0 C2 1 2 1 2 1 Z " fill="#002AD4" transform="translate(86,13)"/>
<path d="M0 0 C2 1 2 1 2 1 Z " fill="#008080" transform="translate(88,12)"/>
<path d="M0 0 C2 1 2 1 2 1 Z " fill="#002AD4" transform="translate(129,11)"/>
<path d="M0 0 C2 1 2 1 2 1 Z " fill="#006A95" transform="translate(90,11)"/>
<path d="M0 0 C2 1 2 1 2 1 Z " fill="#006A95" transform="translate(127,10)"/>
<path d="M0 0 C2 1 2 1 2 1 Z " fill="#006A95" transform="translate(92,10)"/>
<path d="" fill="#0055AA" transform="translate(0,0)"/>
<path d="" fill="#0055AA" transform="translate(0,0)"/>
<path d="" fill="#0055AA" transform="translate(0,0)"/>
<path d="" fill="#0055AA" transform="translate(0,0)"/>
<path d="" fill="#0055AA" transform="translate(0,0)"/>
<path d="" fill="#0055AA" transform="translate(0,0)"/>
<path d="" fill="#0055AA" transform="translate(0,0)"/>
<path d="" fill="#0055AA" transform="translate(0,0)"/>
<path d="" fill="#0055AA" transform="translate(0,0)"/>
<path d="" fill="#0055AA" transform="translate(0,0)"/>
<path d="" fill="#0055AA" transform="translate(0,0)"/>
<path d="" fill="#0055AA" transform="translate(0,0)"/>
<path d="" fill="#0055AA" transform="translate(0,0)"/>
<path d="" fill="#0055AA" transform="translate(0,0)"/>
<path d="" fill="#0055AA" transform="translate(0,0)"/>
<path d="" fill="#008080" transform="translate(0,0)"/>
<path d="" fill="#404080" transform="translate(0,0)"/>
<path d="" fill="#0055AA" transform="translate(0,0)"/>
<path d="" fill="#0055AA" transform="translate(0,0)"/>
<path d="" fill="#0055AA" transform="translate(0,0)"/>
<path d="" fill="#0055AA" transform="translate(0,0)"/>
<path d="" fill="#008080" transform="translate(0,0)"/>
<path d="" fill="#0055AA" transform="translate(0,0)"/>
<path d="" fill="#404080" transform="translate(0,0)"/>
<path d="" fill="#0055AA" transform="translate(0,0)"/>
<path d="" fill="#008080" transform="translate(0,0)"/>
<path d="" fill="#008080" transform="translate(0,0)"/>
<path d="" fill="#008080" transform="translate(0,0)"/>
<path d="" fill="#404080" transform="translate(0,0)"/>
<path d="" fill="#008080" transform="translate(0,0)"/>
<path d="" fill="#0055AA" transform="translate(0,0)"/>
<path d="" fill="#008080" transform="translate(0,0)"/>
<path d="" fill="#404080" transform="translate(0,0)"/>
<path d="" fill="#0055AA" transform="translate(0,0)"/>
<path d="" fill="#008080" transform="translate(0,0)"/>
<path d="" fill="#0055AA" transform="translate(0,0)"/>
<path d="" fill="#0055AA" transform="translate(0,0)"/>
<path d="" fill="#0055AA" transform="translate(0,0)"/>
<path d="" fill="#0055AA" transform="translate(0,0)"/>
<path d="" fill="#404080" transform="translate(0,0)"/>
<path d="" fill="#0055AA" transform="translate(0,0)"/>
<path d="" fill="#404080" transform="translate(0,0)"/>
<path d="" fill="#008080" transform="translate(0,0)"/>
<path d="" fill="#008080" transform="translate(0,0)"/>
<path d="" fill="#0055AA" transform="translate(0,0)"/>
<path d="" fill="#008080" transform="translate(0,0)"/>
<path d="" fill="#0055AA" transform="translate(0,0)"/>
<path d="" fill="#0055AA" transform="translate(0,0)"/>
<path d="" fill="#0055AA" transform="translate(0,0)"/>
<path d="" fill="#008080" transform="translate(0,0)"/>
<path d="" fill="#0055AA" transform="translate(0,0)"/>
<path d="" fill="#404080" transform="translate(0,0)"/>
<path d="" fill="#0055AA" transform="translate(0,0)"/>
<path d="" fill="#0055AA" transform="translate(0,0)"/>
<path d="" fill="#008080" transform="translate(0,0)"/>
<path d="" fill="#404080" transform="translate(0,0)"/>
<path d="" fill="#0055AA" transform="translate(0,0)"/>
<path d="" fill="#008080" transform="translate(0,0)"/>
<path d="" fill="#0055AA" transform="translate(0,0)"/>
<path d="" fill="#404080" transform="translate(0,0)"/>
<path d="" fill="#0055AA" transform="translate(0,0)"/>
<path d="" fill="#0055AA" transform="translate(0,0)"/>
<path d="" fill="#0055AA" transform="translate(0,0)"/>
<path d="" fill="#0055AA" transform="translate(0,0)"/>
<path d="" fill="#0055AA" transform="translate(0,0)"/>
<path d="" fill="#0055AA" transform="translate(0,0)"/>
<path d="" fill="#0055AA" transform="translate(0,0)"/>
<path d="" fill="#0055AA" transform="translate(0,0)"/>
<path d="" fill="#0055AA" transform="translate(0,0)"/>
<path d="" fill="#0055AA" transform="translate(0,0)"/>
</svg>
