<?xml version="1.0" encoding="UTF-8"?>
<svg version="1.1" xmlns="http://www.w3.org/2000/svg" width="683" height="695">
<path d="M0 0 C2.47864203 0.64172869 4.94800212 1.15052453 7.46630859 1.60839844 C19.10948844 3.87389755 30.40836788 7.77286114 41.59130859 11.67089844 C42.83396484 12.10015625 44.07662109 12.52941406 45.35693359 12.97167969 C63.76221466 19.50561312 82.40348307 28.16612808 98.48974609 39.28027344 C100.59506049 40.67338111 102.73658297 41.86406507 104.96630859 43.04589844 C109.68351829 45.59551706 113.91389034 48.70182472 118.20849609 51.90136719 C119.9670919 53.20734079 121.76871458 54.45583576 123.59130859 55.67089844 C123.59130859 56.33089844 123.59130859 56.99089844 123.59130859 57.67089844 C124.18443848 57.78336914 124.77756836 57.89583984 125.38867188 58.01171875 C127.788242 58.72983439 128.96918263 59.57161826 130.83349609 61.21777344 C131.42517578 61.73339844 132.01685547 62.24902344 132.62646484 62.78027344 C133.23361328 63.32167969 133.84076172 63.86308594 134.46630859 64.42089844 C135.6717213 65.47855088 136.87744767 66.53584597 138.08349609 67.59277344 C138.66583008 68.10904297 139.24816406 68.6253125 139.84814453 69.15722656 C141.54425589 70.63004035 143.28255401 72.03368177 145.03662109 73.43652344 C145.87966797 74.17386719 146.72271484 74.91121094 147.59130859 75.67089844 C147.59130859 76.33089844 147.59130859 76.99089844 147.59130859 77.67089844 C148.91130859 78.33089844 150.23130859 78.99089844 151.59130859 79.67089844 C151.59130859 80.33089844 151.59130859 80.99089844 151.59130859 81.67089844 C152.45755859 82.04214844 152.45755859 82.04214844 153.34130859 82.42089844 C155.92070839 83.85389832 157.65252451 85.4551452 159.59130859 87.67089844 C159.59130859 88.33089844 159.59130859 88.99089844 159.59130859 89.67089844 C160.91130859 90.33089844 162.23130859 90.99089844 163.59130859 91.67089844 C163.59130859 92.33089844 163.59130859 92.99089844 163.59130859 93.67089844 C164.16236328 93.89519531 164.73341797 94.11949219 165.32177734 94.35058594 C168.25073455 96.05452318 169.81549753 98.13265271 171.90380859 100.79589844 C175.25355961 105.02190883 178.69547318 109.07490226 182.37646484 113.01464844 C183.59130859 114.67089844 183.59130859 114.67089844 183.59130859 117.67089844 C184.58130859 118.00089844 185.57130859 118.33089844 186.59130859 118.67089844 C187.98978088 120.62590561 189.31369573 122.63485248 190.59130859 124.67089844 C192.0482145 126.73440699 193.50659593 128.79687441 194.96630859 130.85839844 C198.43250133 135.80817285 201.46167875 140.85230109 204.27099609 146.20996094 C205.41553212 148.34326774 206.63507351 150.33950549 207.96630859 152.35839844 C214.97792006 163.41517036 219.98368073 175.6378829 224.81835938 187.7578125 C225.90833528 190.4555545 227.06630148 193.12329624 228.21630859 195.79589844 C232.66137108 206.46989718 235.9741024 217.41817616 238.59130859 228.67089844 C238.9741865 230.16340373 239.35841602 231.65556264 239.74365234 233.14746094 C252.25047703 282.88580723 251.37141391 337.29218772 237.59130859 386.67089844 C237.11149356 388.47020483 236.6323493 390.26969021 236.15380859 392.06933594 C233.30213253 402.59371238 229.9385181 412.66737655 225.59130859 422.67089844 C225.22005859 423.52941406 224.84880859 424.38792969 224.46630859 425.27246094 C223.82141671 426.73858233 223.16835645 428.20115092 222.50537109 429.65917969 C221.90345369 430.98391243 221.31451588 432.31463195 220.73974609 433.65136719 C217.63237987 440.85235065 214.05820593 447.82264671 210.52441406 454.82080078 C209.20642184 457.43402555 207.89857405 460.05229504 206.59130859 462.67089844 C205.93130859 462.67089844 205.27130859 462.67089844 204.59130859 462.67089844 C204.28193359 463.61964844 203.97255859 464.56839844 203.65380859 465.54589844 C202.59130859 468.67089844 202.59130859 468.67089844 201.59130859 470.67089844 C200.93130859 470.67089844 200.27130859 470.67089844 199.59130859 470.67089844 C199.48689453 471.2290625 199.38248047 471.78722656 199.27490234 472.36230469 C196.41423391 482.02319065 187.81395462 490.84367074 181.59130859 498.67089844 C180.85912109 499.59902344 180.12693359 500.52714844 179.37255859 501.48339844 C170.80359397 512.16355724 161.36785093 521.97563686 151.71630859 531.67089844 C151.0028125 532.38906738 150.28931641 533.10723633 149.55419922 533.84716797 C138.69733748 544.67089844 138.69733748 544.67089844 135.59130859 544.67089844 C135.26130859 545.66089844 134.93130859 546.65089844 134.59130859 547.67089844 C132.92407227 549.16967773 132.92407227 549.16967773 130.75927734 550.74511719 C129.96634277 551.32648437 129.1734082 551.90785156 128.35644531 552.50683594 C127.5058252 553.11785156 126.65520508 553.72886719 125.77880859 554.35839844 C124.91529785 554.98617187 124.05178711 555.61394531 123.16210938 556.26074219 C116.74465783 560.90269481 110.23085962 565.35265609 103.59130859 569.67089844 C102.07015096 570.71209147 100.54930052 571.7537335 99.02880859 572.79589844 C90.07729717 578.73166002 80.42691911 583.23903165 70.70458984 587.74121094 C67.93852567 589.02503405 65.20586847 590.35872696 62.48583984 591.73730469 C34.08542078 606.01905483 1.37717364 613.35090163 -30.09146118 616.43728638 C-31.61674695 616.59105839 -33.14117479 616.75363645 -34.664505 616.92570496 C-40.61168801 617.57762036 -46.47525196 617.83116185 -52.45556641 617.83886719 C-53.38806213 617.84219559 -54.32055786 617.84552399 -55.28131104 617.84895325 C-57.24775709 617.85398464 -59.21421158 617.85636275 -61.18066406 617.85620117 C-64.10969144 617.85836228 -67.03832542 617.87648859 -69.96728516 617.89550781 C-87.96944444 617.95102325 -105.75275092 616.82156282 -123.40869141 613.17089844 C-124.49923828 612.95820312 -125.58978516 612.74550781 -126.71337891 612.52636719 C-131.74629898 611.5234748 -136.56962211 610.40780575 -141.40869141 608.67089844 C-142.68744141 608.40277344 -143.96619141 608.13464844 -145.28369141 607.85839844 C-162.22565791 604.18763903 -179.64493286 597.99062168 -194.97119141 589.94433594 C-197.01138454 588.87846581 -199.03493609 587.92763614 -201.15869141 587.04589844 C-212.53147762 582.23433504 -223.46427229 575.97700228 -233.40869141 568.67089844 C-235.12535705 567.69839308 -236.84211062 566.72604155 -238.55981445 565.75537109 C-247.32608345 560.61345021 -255.37482827 554.02328174 -263.28369141 547.67089844 C-263.99195068 547.10701416 -264.70020996 546.54312988 -265.42993164 545.9621582 C-266.08034424 545.43291748 -266.73075684 544.90367676 -267.40087891 544.35839844 C-267.98208496 543.88789062 -268.56329102 543.41738281 -269.16210938 542.93261719 C-270.40869141 541.67089844 -270.40869141 541.67089844 -270.40869141 539.67089844 C-270.98748047 539.40792969 -271.56626953 539.14496094 -272.16259766 538.87402344 C-278.40168103 535.53204487 -282.9564761 530.03638868 -287.40869141 524.67089844 C-289.25177765 523.0485179 -291.12959016 521.49355444 -293.05322266 519.96777344 C-293.72417969 519.32582031 -293.72417969 519.32582031 -294.40869141 518.67089844 C-294.40869141 518.01089844 -294.40869141 517.35089844 -294.40869141 516.67089844 C-295.06869141 516.67089844 -295.72869141 516.67089844 -296.40869141 516.67089844 C-296.65619141 515.88714844 -296.90369141 515.10339844 -297.15869141 514.29589844 C-298.10276697 511.5770715 -298.10276697 511.5770715 -300.16650391 510.89746094 C-303.43207937 509.11106599 -305.32530424 506.33499393 -307.53369141 503.42089844 C-308.01306152 502.79828125 -308.49243164 502.17566406 -308.98632812 501.53417969 C-319.71768191 487.50331397 -329.47298053 472.9109452 -338.40869141 457.67089844 C-338.78767578 457.03667969 -339.16666016 456.40246094 -339.55712891 455.74902344 C-341.50663593 452.4363273 -343.1042047 449.08292021 -344.59887695 445.54663086 C-345.89255661 442.55014583 -347.31621524 439.61650363 -348.72119141 436.67089844 C-356.7863283 419.55743788 -364.43234211 401.24702138 -367.84619141 382.59277344 C-368.45733405 379.41822692 -369.15762782 376.2710008 -369.87011719 373.11791992 C-370.57857387 369.98124882 -371.27226198 366.84143001 -371.96240234 363.70068359 C-372.3188815 362.07936649 -372.67949717 360.45895906 -373.04150391 358.83886719 C-376.54883393 341.60841254 -376.75652217 323.74660211 -376.65869141 306.23339844 C-376.65592194 305.25531219 -376.65315247 304.27722595 -376.65029907 303.26950073 C-376.5904876 285.22980717 -376.36360177 267.3332489 -372.11962891 249.70605469 C-371.43451611 246.78115005 -370.96229896 243.89284701 -370.53369141 240.92089844 C-369.19241137 232.65512388 -366.80052085 224.68291536 -364.40869141 216.67089844 C-364.13863281 215.76355957 -363.86857422 214.8562207 -363.59033203 213.92138672 C-360.55056809 203.80565054 -357.46454218 193.91010266 -352.76806641 184.42480469 C-351.18741735 181.22262771 -349.80944302 177.95566097 -348.40869141 174.67089844 C-343.9442653 164.67831565 -339.19867036 154.97445437 -333.40869141 145.67089844 C-332.74353516 144.59839844 -332.07837891 143.52589844 -331.39306641 142.42089844 C-313.93143152 114.62743071 -313.93143152 114.62743071 -305.40869141 105.67089844 C-304.74869141 105.67089844 -304.08869141 105.67089844 -303.40869141 105.67089844 C-303.17279297 105.11789063 -302.93689453 104.56488281 -302.69384766 103.99511719 C-294.22805947 88.68464918 -276.12450338 74.22152303 -262.40869141 63.67089844 C-261.26396758 62.761318 -260.12083315 61.84973491 -258.97900391 60.93652344 C-252.28414972 55.59781797 -245.5003472 50.4770298 -238.40869141 45.67089844 C-237.80154297 45.23777344 -237.19439453 44.80464844 -236.56884766 44.35839844 C-233.91516801 42.48979272 -232.74201716 41.67089844 -229.40869141 41.67089844 C-229.40869141 41.01089844 -229.40869141 40.35089844 -229.40869141 39.67089844 C-223.65869141 36.67089844 -223.65869141 36.67089844 -221.40869141 36.67089844 C-221.40869141 36.01089844 -221.40869141 35.35089844 -221.40869141 34.67089844 C-220.26529297 34.105 -219.12189453 33.53910156 -217.94384766 32.95605469 C-212.80015291 30.38477342 -207.73766324 27.6673468 -202.67626953 24.93847656 C-195.15235425 20.91978842 -187.360101 17.85992266 -179.36962891 14.92089844 C-176.23781452 13.76007148 -173.17934633 12.56757014 -170.13134766 11.19433594 C-161.02934 7.24319629 -150.97361289 5.2052925 -141.40869141 2.67089844 C-140.49104004 2.4251709 -139.57338867 2.17944336 -138.62792969 1.92626953 C-95.09933581 -9.51998654 -43.70499179 -11.69216862 0 0 Z " fill="#323232" transform="translate(410.40869140625,43.3291015625)"/>
<path d="M0 0 C7.03802891 5.51885909 10.29139408 12.10839618 13.50390625 20.37890625 C13.50390625 25.98890625 13.50390625 31.59890625 13.50390625 37.37890625 C-8.27609375 37.37890625 -30.05609375 37.37890625 -52.49609375 37.37890625 C-50.70610141 49.01385646 -49.0222116 59.36800823 -40.12109375 67.56640625 C-34.24368944 71.62461399 -29.76615107 72.9370388 -22.74609375 72.87890625 C-21.55064941 72.87032593 -21.55064941 72.87032593 -20.33105469 72.86157227 C-12.0374619 72.61073753 -5.97906543 70.24173444 -0.12109375 64.25390625 C3.30627737 59.86258701 4.88459744 54.64642257 6.50390625 49.37890625 C8.81390625 49.37890625 11.12390625 49.37890625 13.50390625 49.37890625 C11.69712882 59.72681336 8.04332187 66.89234355 -0.0859375 73.71875 C-3.67459105 76.19067506 -7.28217701 77.40398479 -11.49609375 78.37890625 C-12.09421875 78.56066406 -12.69234375 78.74242187 -13.30859375 78.9296875 C-22.81245554 80.8813734 -33.23139428 80.10292205 -41.60546875 75.125 C-50.82549294 68.76456978 -56.30350541 59.32057286 -58.49609375 48.37890625 C-59.88340358 32.77016267 -59.17966562 18.50522652 -49.4765625 5.63671875 C-36.26372639 -9.42643564 -16.60919955 -10.78688233 0 0 Z " fill="#F5F5F5" transform="translate(149.49609375,298.62109375)"/>
<path d="M0 0 C7.75961015 5.44465979 13.66389274 12.58668513 15.625 22 C16.15405935 27.64329977 16 33.33195482 16 39 C-5.78 39 -27.56 39 -50 39 C-46.74018676 56.12422528 -46.74018676 56.12422528 -37.625 69.4375 C-28.96745985 74.59079771 -19.89522801 75.29793902 -10 74 C-3.50538136 72.02528487 1.37394308 67.66964391 5 62 C6.8371941 58.39851632 8.47080405 54.74179363 10 51 C11.98 51 13.96 51 16 51 C15.42671838 59.7903182 11.49197636 67.49062554 5.0234375 73.46484375 C-5.07228088 81.12433665 -15.68276352 81.70309807 -28 81 C-36.28710226 79.58278541 -42.84289945 74.86716444 -48.1875 68.5 C-56.77686086 55.9101149 -57.64678337 41.78236753 -56 27 C-53.79166719 15.45549959 -46.46791375 5.71422968 -37 -1 C-25.44762983 -7.9314221 -11.35269788 -6.62797215 0 0 Z " fill="#F5F5F5" transform="translate(431,297)"/>
<path d="M0 0 C9.54192673 7.06076182 14.41502937 14.4612479 17 26 C17.42703364 30.13435364 17.47756284 34.22108253 17.4375 38.375 C17.42920166 39.47972656 17.42090332 40.58445312 17.41235352 41.72265625 C17.15664758 54.02566091 14.63288676 62.84095536 6 72 C3.375 74.375 3.375 74.375 1 76 C0.236875 76.53625 -0.52625 77.0725 -1.3125 77.625 C-10.22840651 82.18662658 -21.57698704 82.41966236 -31.26953125 80.27734375 C-40.40563361 77.190316 -44.10852698 73.56007778 -49 65 C-49.33 79.52 -49.66 94.04 -50 109 C-51.98 109 -53.96 109 -56 109 C-56 72.04 -56 35.08 -56 -3 C-54.02 -3 -52.04 -3 -50 -3 C-49.67 2.28 -49.34 7.56 -49 13 C-48.360625 11.824375 -47.72125 10.64875 -47.0625 9.4375 C-43.05082937 3.04602475 -36.68392671 -2.25598736 -29.4140625 -4.55859375 C-18.90533555 -6.48009237 -9.20116619 -5.54643724 0 0 Z M-42 11 C-50.09840938 21.11252156 -50.73540266 32.54976205 -50 45 C-49.6283109 48.14329671 -48.99485491 50.99857331 -48 54 C-47.72027344 54.85335937 -47.44054687 55.70671875 -47.15234375 56.5859375 C-45.25672988 61.81998065 -43.37183369 65.37457694 -39 69 C-37.7625 70.0828125 -37.7625 70.0828125 -36.5 71.1875 C-29.38534573 76.34562435 -20.43667854 76.11405934 -12 75 C-3.8373202 72.57084365 1.94057059 68.48258462 6 61 C6.48339844 60.15953125 6.96679688 59.3190625 7.46484375 58.453125 C12.68878347 47.97630406 12.61104443 34.52181817 9.8125 23.23046875 C6.6602568 14.57695496 1.15103744 7.21923455 -7.08984375 2.90625 C-20.24082645 -2.23048104 -32.59374867 0.94782583 -42 11 Z " fill="#F6F6F6" transform="translate(305,297)"/>
<path d="M0 0 C7.34694346 5.3471837 12.14294408 10.80981358 14.75 19.5 C15.09836172 22.98361717 15 26.49900808 15 30 C-4.47 30 -23.94 30 -44 30 C-44 19.9974143 -41.45153438 12.73021687 -35 5 C-25.69498602 -3.85111086 -11.52108976 -6.27700753 0 0 Z " fill="#353535" transform="translate(426,301)"/>
<path d="M0 0 C8.04074028 5.94024739 12.90659116 12.056308 15 22 C15 24.64 15 27.28 15 30 C-4.47 30 -23.94 30 -44 30 C-42.98169148 17.78029776 -41.43536652 11.26707991 -33 3 C-24.06662725 -4.03265515 -10.0717697 -6.07953906 0 0 Z " fill="#353535" transform="translate(142,301)"/>
<path d="M0 0 C5.81309094 5.31452292 8.29241425 11.02852701 8.703125 18.83203125 C8.6103125 20.03859375 8.6103125 20.03859375 8.515625 21.26953125 C6.205625 21.26953125 3.895625 21.26953125 1.515625 21.26953125 C1.35707031 20.46128906 1.19851563 19.65304687 1.03515625 18.8203125 C-0.65666742 10.30527428 -0.65666742 10.30527428 -6.484375 4.26953125 C-15.180305 0.30353701 -25.45064093 -0.28780736 -34.546875 2.64453125 C-39.90691201 4.49692827 -39.90691201 4.49692827 -43.734375 8.33203125 C-45.02623697 13.39182396 -45.28344836 18.15433706 -43.421875 23.08203125 C-38.94028844 28.14188705 -32.99074727 29.9687666 -26.609375 31.39453125 C-25.55230347 31.64589844 -25.55230347 31.64589844 -24.47387695 31.90234375 C-20.88477942 32.74946508 -17.28334313 33.5250333 -13.671875 34.26953125 C-6.50241415 35.83828084 1.29207817 37.88769512 6.515625 43.26953125 C7.27875 44.05328125 8.041875 44.83703125 8.828125 45.64453125 C11.74361128 51.90742771 11.68793639 59.18211401 9.78515625 65.81640625 C6.84033591 72.21087326 1.92916067 75.6073089 -4.484375 78.26953125 C-15.46509559 81.59264406 -28.93629252 82.1981928 -39.484375 77.26953125 C-46.57036637 73.30035835 -50.89105548 67.45617028 -54.484375 60.26953125 C-54.55388041 58.72929129 -54.56889857 57.18618137 -54.546875 55.64453125 C-54.53785156 54.82726562 -54.52882813 54.01 -54.51953125 53.16796875 C-54.50792969 52.54148437 -54.49632812 51.915 -54.484375 51.26953125 C-52.504375 51.26953125 -50.524375 51.26953125 -48.484375 51.26953125 C-48.2884375 52.05457031 -48.0925 52.83960938 -47.890625 53.6484375 C-45.28651739 62.79648794 -41.77260667 66.97023627 -33.8359375 71.921875 C-29.38763003 73.7105301 -25.48842372 73.80456575 -20.734375 73.76953125 C-19.84492187 73.76381104 -18.95546875 73.75809082 -18.0390625 73.75219727 C-11.3422149 73.5699242 -5.72291836 72.78748895 -0.484375 68.26953125 C2.7068122 64.8672867 3.7467973 61.24487488 3.953125 56.64453125 C3.74160186 52.75118341 3.16692621 50.26293584 0.515625 47.26953125 C-6.6905506 41.86489955 -17.26188462 39.41842915 -26.171875 38.83203125 C-34.33975492 38.15266128 -42.07572 34.23929881 -48.1796875 28.89453125 C-52.70378671 23.25972505 -52.15049865 16.09940662 -51.484375 9.26953125 C-50.05473721 4.38992921 -46.78354123 1.03560088 -42.578125 -1.6640625 C-29.88799125 -8.12750749 -11.89528344 -8.2855512 0 0 Z " fill="#F3F3F3" transform="translate(590.484375,297.73046875)"/>
<path d="M0 0 C4.03872314 3.60210443 5.99102142 6.77658567 7.3125 12.0625 C7.46317984 14.7552946 7.40564046 17.36142654 7.3125 20.0625 C5.3325 20.0625 3.3525 20.0625 1.3125 20.0625 C1.07466797 18.95841797 1.07466797 18.95841797 0.83203125 17.83203125 C-0.58058504 11.92401726 -1.61803533 7.83512487 -6.6875 4.0625 C-15.46127555 -0.95108603 -24.76795687 -0.87711002 -34.625 0.6875 C-39.04674304 2.67277239 -43.46938985 5.62627969 -45.6875 10.0625 C-46.23641885 14.56183488 -46.05889892 18.16776624 -44.3125 22.375 C-37.1345216 29.72388265 -24.83016869 31.00697429 -15.125 33 C-6.04333627 35.01447814 2.22661612 37.54606685 7.94140625 45.26171875 C10.74675699 50.992307 10.43587718 59.36018703 8.5859375 65.45703125 C4.95750951 72.2271469 -1.65731381 75.70062357 -8.6875 78.0625 C-21.033246 80.27691868 -34.22371968 80.70107988 -44.9375 73.4375 C-49.90475213 69.41735071 -53.66676817 64.12469549 -55.6875 58.0625 C-55.81531786 55.38855036 -55.73141871 52.74154143 -55.6875 50.0625 C-53.7075 50.0625 -51.7275 50.0625 -49.6875 50.0625 C-49.35878906 51.13177734 -49.35878906 51.13177734 -49.0234375 52.22265625 C-46.42593708 60.06795222 -43.56991916 66.22553219 -36.04296875 70.2265625 C-31.56487933 72.3752859 -27.65858282 72.64444705 -22.75 72.5 C-21.56531128 72.48018066 -21.56531128 72.48018066 -20.35668945 72.45996094 C-12.41727117 72.21403162 -5.43386321 70.98299543 0.3125 65.0625 C2.90459982 60.74233364 2.86551478 55.95935665 2.3125 51.0625 C0.45977211 46.15822029 -3.10411211 44.19571295 -7.6875 42.0625 C-10.87519266 41.01214784 -14.10437609 40.24610622 -17.375 39.5 C-18.25841064 39.28657959 -19.14182129 39.07315918 -20.05200195 38.85327148 C-23.80697406 37.94881926 -27.56487223 37.08844049 -31.34375 36.2890625 C-39.14247185 34.58057962 -45.85664128 31.95493074 -50.6875 25.3125 C-51.0175 24.57 -51.3475 23.8275 -51.6875 23.0625 C-52.0175 22.4025 -52.3475 21.7425 -52.6875 21.0625 C-53.34106434 13.40186885 -53.65358823 7.1746086 -48.6875 1.0625 C-36.32947948 -11.16119421 -13.28540207 -9.577848 0 0 Z " fill="#F4F4F4" transform="translate(514.6875,298.9375)"/>
<path d="M0 0 C3.30121449 -0.68649245 5.70165246 -0.93588082 9 0 C12.08416782 2.92995943 14.28612914 6.37992148 16.61181641 9.92675781 C19.40775255 14.10246828 22.40706625 18.13331851 25.375 22.1875 C25.98239014 23.03739502 26.58978027 23.88729004 27.21557617 24.76293945 C28.07953003 25.95342896 28.07953003 25.95342896 28.9609375 27.16796875 C29.73123291 28.23954224 29.73123291 28.23954224 30.51708984 29.33276367 C31.99747267 31.27621127 31.99747267 31.27621127 35 32 C36.21949223 30.37401036 37.43878201 28.74786861 38.65722656 27.12109375 C39.72877501 25.69411446 40.80371008 24.26967264 41.88183594 22.84765625 C44.73413718 19.07552515 47.51825419 15.27926999 50.1875 11.375 C50.70151367 10.64152344 51.21552734 9.90804688 51.74511719 9.15234375 C52.73076767 7.7426269 53.69596864 6.31833647 54.63769531 4.87890625 C57.95094572 0.2107689 57.95094572 0.2107689 61.13867188 -0.4296875 C63.359375 -0.4375 63.359375 -0.4375 67 0 C64.24783304 5.09540346 61.18664967 9.48390633 57.5 13.9375 C51.10276605 21.78983428 45.02993537 29.8638638 39 38 C40.25973923 40.65551005 41.62167082 42.98893353 43.3984375 45.328125 C43.8720874 45.95525391 44.3457373 46.58238281 44.83374023 47.22851562 C45.34235596 47.89560547 45.85097168 48.56269531 46.375 49.25 C46.90230713 49.94802734 47.42961426 50.64605469 47.97290039 51.36523438 C50.19593637 54.30776874 52.42638669 57.24464949 54.65673828 60.18164062 C56.25300563 62.28574595 57.84531753 64.39280292 59.4375 66.5 C59.9207373 67.13325195 60.40397461 67.76650391 60.90185547 68.41894531 C64.20495597 72.79174133 67.16600841 77.31031781 70 82 C66.87618581 82.4944731 64.11230086 82.62881181 61 82 C58.26284627 79.81668507 56.59630002 77.07220502 54.75 74.125 C53.64805881 72.48375465 52.54516401 70.84314923 51.44140625 69.203125 C50.88211426 68.35041016 50.32282227 67.49769531 49.74658203 66.61914062 C46.85304901 62.28005449 43.76311627 58.08592797 40.6875 53.875 C39.58631827 52.35222832 38.4859712 50.82885247 37.38671875 49.3046875 C36.92483154 48.66515137 36.46294434 48.02561523 35.98706055 47.36669922 C35.66133057 46.91568848 35.33560059 46.46467773 35 46 C31.35086965 47.68240349 29.79663258 49.29085358 27.5 52.625 C26.81292969 53.60210937 26.12585938 54.57921875 25.41796875 55.5859375 C25.03817871 56.12702148 24.65838867 56.66810547 24.26708984 57.22558594 C21.84683985 60.61486859 19.32216214 63.92670663 16.8125 67.25 C15.81818326 68.56708429 14.8246705 69.88477599 13.83203125 71.203125 C13.35677002 71.82952881 12.88150879 72.45593262 12.3918457 73.10131836 C11.45138518 74.38424442 10.54658444 75.69396585 9.67651367 77.02563477 C6.50669125 81.84525136 6.50669125 81.84525136 3.76171875 82.68359375 C1.84114583 82.45572917 -0.07942708 82.22786458 -2 82 C-0.64282151 79.11574468 0.90625562 76.61177891 2.80078125 74.05078125 C3.35999268 73.29289307 3.9192041 72.53500488 4.49536133 71.75415039 C5.09501709 70.94840576 5.69467285 70.14266113 6.3125 69.3125 C6.92826904 68.47904053 7.54403809 67.64558105 8.1784668 66.78686523 C11.33635666 62.52683356 14.52866196 58.29759245 17.78125 54.109375 C18.37510498 53.34326904 18.96895996 52.57716309 19.58081055 51.7878418 C20.71417104 50.33139447 21.85344584 48.87952554 22.99926758 47.43286133 C23.51126709 46.77568115 24.0232666 46.11850098 24.55078125 45.44140625 C25.00106689 44.87107666 25.45135254 44.30074707 25.9152832 43.71313477 C27.13906034 41.78037668 27.69446347 40.26606261 28 38 C26.6142943 35.47046327 26.6142943 35.47046327 24.4375 32.875 C23.84533691 32.11751465 23.84533691 32.11751465 23.24121094 31.34472656 C22.34643399 30.20241494 21.44579476 29.06468017 20.54052734 27.93066406 C18.20844554 25.00798531 15.90383741 22.06405705 13.60180664 19.11767578 C12.39374089 17.57307174 11.18089738 16.0321891 9.96264648 14.49560547 C6.30511979 9.8424503 3.02205317 5.0895924 0 0 Z " fill="#F4F4F4" transform="translate(169,294)"/>
<path d="M0 0 C2.31 0 4.62 0 7 0 C7.33 4.62 7.66 9.24 8 14 C8.825 12.948125 9.65 11.89625 10.5 10.8125 C15.49726769 5.00391121 21.43202148 1.43530627 29 0 C32.34146753 -0.14229451 35.65829975 -0.12102737 39 0 C39 1.98 39 3.96 39 6 C38.29875 6.02578125 37.5975 6.0515625 36.875 6.078125 C30.35334767 6.46800639 25.52612631 7.48913535 20 11 C19.13375 11.53625 18.2675 12.0725 17.375 12.625 C12.07877474 17.92122526 7.91469262 24.76637598 7.79467773 32.27587891 C7.77473251 33.3768692 7.75478729 34.4778595 7.73423767 35.61221313 C7.71752518 36.80494843 7.70081268 37.99768372 7.68359375 39.2265625 C7.66281265 40.44451508 7.64203156 41.66246765 7.62062073 42.91732788 C7.55507416 46.8198262 7.49621645 50.7223935 7.4375 54.625 C7.39431965 57.26563222 7.35070552 59.90625739 7.30664062 62.546875 C7.19938756 69.03117643 7.09763071 75.51554694 7 82 C4.69 82 2.38 82 0 82 C0 54.94 0 27.88 0 0 Z " fill="#F1F1F1" transform="translate(336,294)"/>
<path d="M0 0 C-1.55339246 3.70654622 -3.82562416 6.08370297 -6.6484375 8.9140625 C-7.57140625 9.83960937 -8.494375 10.76515625 -9.4453125 11.71875 C-9.92645508 12.19570312 -10.40759766 12.67265625 -10.90332031 13.1640625 C-12.37020527 14.62024027 -13.8261189 16.08677484 -15.28125 17.5546875 C-16.20679687 18.47765625 -17.13234375 19.400625 -18.0859375 20.3515625 C-18.9320459 21.19541504 -19.7781543 22.03926758 -20.64990234 22.90869141 C-22.73263125 24.76207347 -24.44882606 25.9308175 -27 27 C-25.41588094 23.1173105 -22.77134362 20.48135635 -19.84375 17.578125 C-19.34081421 17.07327576 -18.83787842 16.56842651 -18.31970215 16.04827881 C-17.25970014 14.98692003 -16.19718512 13.92806581 -15.13232422 12.87158203 C-13.49859954 11.24860876 -11.87586706 9.61518932 -10.25390625 7.98046875 C-9.22199524 6.94987854 -8.18946441 5.91990848 -7.15625 4.890625 C-6.66974976 4.40007629 -6.18324951 3.90952759 -5.68200684 3.40411377 C-2.22994349 0 -2.22994349 0 0 0 Z " fill="#1A1A1A" transform="translate(139,116)"/>
<path d="M0 0 C0.66 0.33 1.32 0.66 2 1 C-1.63 4.63 -5.26 8.26 -9 12 C-9 8.00102358 -7.64683965 6.93298448 -5 4 C-3.36643049 2.62631655 -1.7074998 1.28062485 0 0 Z " fill="#4F4F4F" transform="translate(357,303)"/>
</svg>
