<?xml version="1.0" encoding="UTF-8"?>
<svg version="1.1" xmlns="http://www.w3.org/2000/svg" width="680" height="622">
<path d="M0 0 C5.97252475 0.06805621 11.94469729 0.03622161 17.91746545 0.0174284 C28.90474156 -0.00283545 39.89001155 0.0520763 50.87687098 0.14493514 C61.02034934 0.22995256 71.16321905 0.27673435 81.30704904 0.28736401 C81.982983 0.28809721 82.65891697 0.28883041 83.35533378 0.28958582 C86.78919682 0.29315479 90.22306012 0.29615001 93.65692388 0.2989457 C117.89984404 0.31991711 142.14181521 0.42167532 166.38426232 0.56982708 C189.89078039 0.71337929 213.39687286 0.81243916 236.90379357 0.85693645 C237.6293676 0.85832321 238.35494164 0.85970996 239.10250276 0.86113874 C244.9404966 0.87227725 250.77849081 0.88323309 256.6164856 0.89386147 C281.81417895 0.93978228 307.01178337 1.01788299 332.20936297 1.10550901 C336.27279353 1.11961904 340.33622535 1.13323014 344.39965894 1.14643949 C360.50494619 1.19897596 376.61003368 1.26899749 392.71511865 1.36678219 C397.39057995 1.39465918 402.06599229 1.41577416 406.74151254 1.430686 C412.12331793 1.44812985 417.50485692 1.47948774 422.88652097 1.52201226 C424.83198575 1.53507171 426.77749116 1.54321162 428.72299792 1.54590389 C443.35321967 1.57073737 455.25796754 2.38699478 466.4472506 12.8686552 C473.9618242 20.89485934 476.63460279 29.37511038 476.5842135 40.18213177 C476.58435952 41.0020158 476.58450555 41.82189983 476.584656 42.66662884 C476.58396028 45.37201886 476.57618382 48.07733973 476.56834435 50.7827177 C476.56647896 52.66030114 476.56505563 54.53788507 476.56405663 56.41546917 C476.56024099 61.35397978 476.55041882 66.29246092 476.53935266 71.23095989 C476.5273182 77.15810824 476.52273176 83.08526645 476.51689935 89.01242352 C476.50720658 98.0140004 476.48804334 107.01551264 476.4706881 116.0170927 C492.9706881 116.0170927 509.4706881 116.0170927 526.4706881 116.0170927 C526.4706881 282.9970927 526.4706881 449.9770927 526.4706881 622.0170927 C378.42912533 622.17860727 378.42912533 622.17860727 321.73954904 622.20975256 C306.91568739 622.21791738 292.09182587 622.22626907 277.26796465 622.23519668 C275.47490734 622.23627604 273.68185002 622.23734953 271.8887927 622.23841706 C243.30473841 622.2554839 214.72071578 622.2854986 186.13668062 622.32228159 C156.75869508 622.36001759 127.38072704 622.38463579 98.00271766 622.39275267 C93.853113 622.39390528 89.7035084 622.39520783 85.55390382 622.39660168 C84.3288534 622.39700621 84.3288534 622.39700621 83.07905448 622.39741893 C69.93336104 622.40214547 56.78772172 622.42069683 43.64205035 622.44442084 C30.42564132 622.46797738 17.20928594 622.47696273 3.99285664 622.47109821 C-3.85891754 622.46805633 -11.71049532 622.47616286 -19.56223403 622.50028288 C-25.4266475 622.51706674 -31.29092541 622.51292798 -37.15535422 622.50068828 C-39.52700662 622.49899706 -41.89867554 622.50408133 -44.27029536 622.51662543 C-47.4958275 622.5326942 -50.72040198 622.524016 -53.94591975 622.50928402 C-55.32482626 622.5250461 -55.32482626 622.5250461 -56.73158947 622.54112661 C-67.48690877 622.43023685 -76.86103985 618.59567736 -84.5293119 611.0170927 C-92.24946842 601.77655524 -93.98970451 592.55979046 -93.82228065 580.76318645 C-93.8180358 579.62172665 -93.81379096 578.48026684 -93.80941749 577.30421734 C-93.7927334 573.68742761 -93.75509956 570.07121173 -93.7168119 566.4545927 C-93.70175182 563.99040809 -93.68806574 561.52621467 -93.67579627 559.06201458 C-93.64286355 553.0468475 -93.59276718 547.03201112 -93.5293119 541.0170927 C-109.96397962 550.7219743 -126.38538394 560.4334425 -142.57228065 570.5483427 C-143.26499061 570.98017864 -143.95770057 571.41201458 -144.67140174 571.85693645 C-146.26848208 572.85421974 -147.86212849 573.85699849 -149.45509315 574.8608427 C-151.5293119 576.0170927 -151.5293119 576.0170927 -153.5293119 576.0170927 C-153.8888808 527.76978185 -154.22320277 479.52237537 -154.41851783 431.27409649 C-154.42141703 430.55974456 -154.42431622 429.84539263 -154.42730328 429.10939367 C-154.49015776 413.58372858 -154.54833109 398.05804926 -154.60168381 382.53234868 C-154.62787735 374.9182921 -154.65510505 367.30423938 -154.68287635 359.69018841 C-154.68562229 358.93250819 -154.68836823 358.17482797 -154.69119738 357.39418774 C-154.78064952 332.8455916 -154.93835721 308.29801209 -155.13155353 283.75003158 C-155.32976618 258.51877161 -155.45893493 233.28807396 -155.50152669 208.05604858 C-155.50757773 204.49034973 -155.51441609 200.9246528 -155.521734 197.35895634 C-155.52314988 196.65719239 -155.52456577 195.95542845 -155.52602455 195.23239893 C-155.55081936 183.94597518 -155.64815355 172.66129276 -155.77278461 161.37557855 C-155.89660318 150.02270259 -155.94190016 138.67206984 -155.91284082 127.31835667 C-155.89938508 121.1680604 -155.92000555 115.02286249 -156.03262687 108.87347317 C-156.65941749 72.90506751 -156.65941749 72.90506751 -151.48387289 64.82293391 C-146.70518596 60.10553058 -141.49439959 57.70841027 -135.11069977 55.85045373 C-131.16873349 54.57785107 -127.91159121 52.43506264 -124.46290565 50.1889677 C-123.22186653 49.44800854 -121.97781215 48.71205302 -120.72950721 47.9834013 C-116.70451086 45.61307278 -112.68430914 43.23472837 -108.66603065 40.8530302 C-107.98054145 40.44674389 -107.29505225 40.04045757 -106.58879066 39.62185955 C-100.51245564 36.01581575 -94.45402886 32.38011194 -88.4266938 28.69263387 C-86.72809133 27.66389165 -85.02029381 26.65033302 -83.30932009 25.64230037 C-77.52602537 22.19741029 -72.03807955 18.73595204 -66.74905562 14.54999447 C-46.00014512 -1.11065008 -25.14483295 -0.36679887 0 0 Z " fill="#DAAD03" transform="translate(153.52931189537048,-1.0170927047729492)"/>
<path d="M0 0 C16.5 0 33 0 50 0 C50 166.98 50 333.96 50 506 C-98.04156278 506.16151457 -98.04156278 506.16151457 -154.73113906 506.19265985 C-169.55500071 506.20082468 -184.37886224 506.20917636 -199.20272345 506.21810398 C-200.99578076 506.21918334 -202.78883808 506.22025682 -204.5818954 506.22132435 C-233.16594969 506.23839119 -261.74997233 506.2684059 -290.33400748 506.30518888 C-319.71199303 506.34292488 -349.08996107 506.36754308 -378.46797044 506.37565996 C-382.6175751 506.37681258 -386.7671797 506.37811512 -390.91678429 506.37950897 C-392.14183471 506.37991351 -392.14183471 506.37991351 -393.39163362 506.38032622 C-406.53732707 506.38505277 -419.68296638 506.40360412 -432.82863775 506.42732814 C-446.04504679 506.45088468 -459.26140217 506.45987002 -472.47783146 506.45400551 C-480.32960564 506.45096363 -488.18118342 506.45907016 -496.03292213 506.48319017 C-501.8973356 506.49997403 -507.76161351 506.49583528 -513.62604233 506.48359558 C-515.99769472 506.48190435 -518.36936364 506.48698863 -520.74098346 506.49953273 C-523.9665156 506.51560149 -527.19109009 506.5069233 -530.41660786 506.49219131 C-531.33587886 506.50269937 -532.25514987 506.51320742 -533.20227757 506.5240339 C-543.95759687 506.41314415 -553.33172795 502.57858466 -561 495 C-568.6635758 485.82718608 -570.47131083 476.45053979 -570.57421875 464.73828125 C-570.5889473 463.58885544 -570.60367584 462.43942963 -570.61885071 461.25517273 C-570.6426862 458.83904603 -570.65818697 456.42282416 -570.66577148 454.0065918 C-570.68750304 450.3119836 -570.76788696 446.62144016 -570.84960938 442.92773438 C-570.86559313 440.57293842 -570.87808329 438.21811561 -570.88671875 435.86328125 C-570.91859787 434.76317215 -570.95047699 433.66306305 -570.98332214 432.52961731 C-570.91765883 425.06851002 -570.91765883 425.06851002 -568.29875183 422.01908875 C-566.26270786 420.4654012 -564.25232348 419.21381101 -562 418 C-560.67395409 417.18395122 -559.34946439 416.36536183 -558.02734375 415.54296875 C-556.66680303 414.75307316 -555.30343332 413.96803333 -553.9375 413.1875 C-552.4449646 412.3222144 -550.95278416 411.45631628 -549.4609375 410.58984375 C-548.71682617 410.15913574 -547.97271484 409.72842773 -547.20605469 409.28466797 C-543.80587733 407.30461781 -540.4330976 405.279875 -537.0625 403.25 C-535.33577783 402.21119125 -533.60828228 401.17322519 -531.86241758 400.1669203 C-529.94970986 399.02598781 -529.94970986 399.02598781 -528.19136679 397.49771726 C-519.50077874 390.95112194 -509.40780093 392.18508609 -499.0562439 392.2784729 C-496.90271252 392.27585502 -494.74918301 392.27059892 -492.59566367 392.2629379 C-486.68919294 392.24953843 -480.78337651 392.27349834 -474.87698913 392.30360627 C-468.50355435 392.32953365 -462.13015603 392.32074762 -455.75668335 392.31619263 C-444.71797184 392.31304757 -433.6794766 392.33165177 -422.64081955 392.36561966 C-411.0660641 392.40114577 -399.49139359 392.42422014 -387.91658401 392.43073654 C-387.19637109 392.43114898 -386.47615816 392.43156142 -385.73412059 392.43198635 C-382.0763869 392.43401641 -378.41865314 392.43582469 -374.76091929 392.43754761 C-348.86643401 392.45014349 -322.97205958 392.49054918 -297.07763672 392.54736328 C-271.92464778 392.60248685 -246.77168943 392.64487871 -221.61865234 392.67041016 C-220.0364083 392.67203401 -218.45416427 392.67365824 -216.87192023 392.67528284 C-204.0151174 392.68841584 -191.15831373 392.70067116 -178.30150984 392.71271373 C-118.86756819 392.7690162 -59.43391587 392.88944432 0 393 C0 263.31 0 133.62 0 0 Z " fill="#705A01" transform="translate(630,115)"/>
<path d="M0 0 C0.73621393 14.70722422 1.15540589 29.37524629 1.18081665 44.09999084 C1.18772143 46.11196965 1.1950121 48.12394716 1.20264852 50.13592333 C1.22210477 55.59072952 1.2356585 61.04553569 1.24799705 66.50036204 C1.25937855 71.196007 1.2742758 75.89163845 1.28912015 80.58727355 C1.42680823 124.30599517 1.49371323 168.02505175 1.54586862 211.74395427 C1.55361955 218.22684545 1.56166724 224.70973627 1.56982422 231.19262695 C1.57071816 231.90883988 1.57161211 232.6250528 1.57253314 233.36296915 C1.60181152 256.64230883 1.6629179 279.9214276 1.74120806 303.20065006 C1.82168684 327.17439411 1.87296433 351.14801859 1.88632692 375.12189886 C1.88821983 378.50467652 1.890433 381.88745391 1.89283371 385.27023125 C1.89329402 385.93590203 1.89375432 386.60157282 1.89422858 387.28741545 C1.90195759 397.33634505 1.93539847 407.38497529 1.98213577 417.43379402 C2.03519702 428.84729944 2.05814135 440.26034893 2.04102559 451.67397422 C2.03325496 457.4978978 2.04026752 463.32083963 2.08630753 469.14460754 C2.12809462 474.47191254 2.12863938 479.79754543 2.09587733 485.12489884 C2.09136586 487.05501927 2.10219125 488.9852469 2.12962742 490.91517759 C2.32267912 505.35357756 2.32267912 505.35357756 -0.93854642 509.41303146 C-3.25973017 510.99855836 -5.37672323 512.01506474 -8 513 C-9.31886705 513.73748287 -10.62853965 514.49204453 -11.921875 515.2734375 C-13.19633773 515.97682681 -14.47240866 516.67730942 -15.75 517.375 C-22.97027686 521.37938065 -30.01044108 525.60217675 -37 530 C-37.95648438 530.59683594 -38.91296875 531.19367187 -39.8984375 531.80859375 C-45.05380515 535.0441 -45.05380515 535.0441 -50.0715332 538.48730469 C-56.47461955 543.08078062 -63.12932173 547.12283138 -69.95223999 551.05325317 C-73.14312207 552.89160788 -76.32619142 554.74332981 -79.5078125 556.59765625 C-80.1423082 556.96739059 -80.77680389 557.33712494 -81.43052673 557.71806335 C-88.31961803 561.74775959 -95.09281432 565.96136615 -101.8293457 570.24072266 C-102.62171631 570.74007324 -103.41408691 571.23942383 -104.23046875 571.75390625 C-104.91520264 572.19033447 -105.59993652 572.6267627 -106.30541992 573.07641602 C-108 574 -108 574 -110 574 C-110.35956891 525.75268914 -110.69389087 477.50528266 -110.88920593 429.25700378 C-110.89210513 428.54265185 -110.89500433 427.82829993 -110.89799138 427.09230097 C-110.96084587 411.56663588 -111.01901919 396.04095655 -111.07237192 380.51525598 C-111.09856545 372.9011994 -111.12579316 365.28714668 -111.15356445 357.6730957 C-111.15631039 356.91541548 -111.15905633 356.15773526 -111.16188548 355.37709504 C-111.25133763 330.82849889 -111.40904532 306.28091938 -111.60224164 281.73293888 C-111.80045428 256.5016789 -111.92962304 231.27098125 -111.97221479 206.03895587 C-111.97826583 202.47325703 -111.9851042 198.90756009 -111.9924221 195.34186363 C-111.99383799 194.64009969 -111.99525387 193.93833574 -111.99671266 193.21530622 C-112.02150747 181.92888248 -112.11884165 170.64420005 -112.24347271 159.35848584 C-112.36729129 148.00560989 -112.41258826 136.65497714 -112.38352893 125.30126397 C-112.37007319 119.15096769 -112.39069366 113.00576978 -112.50331497 106.85638046 C-113.1301056 70.8879748 -113.1301056 70.8879748 -107.954561 62.80584121 C-103.17587407 58.08843787 -97.9650877 55.69131757 -91.58138788 53.83336103 C-87.6394216 52.56075837 -84.38227932 50.41796993 -80.93359375 48.171875 C-79.69255464 47.43091583 -78.44850025 46.69496032 -77.20019531 45.96630859 C-73.17519897 43.59598007 -69.15499724 41.21763566 -65.13671875 38.8359375 C-64.45122955 38.42965118 -63.76574036 38.02336487 -63.05947876 37.60476685 C-56.26327314 33.57151077 -49.50143537 29.48265348 -42.75 25.375 C-41.63061035 24.6941333 -40.5112207 24.0132666 -39.35791016 23.31176758 C-34.59779195 20.41384269 -29.83980137 17.51244068 -25.08251953 14.60986328 C-21.79250761 12.60263238 -18.50125872 10.5974421 -15.20935059 8.59332275 C-13.34454922 7.4570288 -11.48133462 6.31816457 -9.61816406 5.17919922 C-8.50280273 4.50002441 -7.38744141 3.82084961 -6.23828125 3.12109375 C-4.7538855 2.21508423 -4.7538855 2.21508423 -3.23950195 1.29077148 C-1 0 -1 0 0 0 Z " fill="#E9CC5C" transform="translate(110,1)"/>
<path d="M0 0 C47.85 0 95.7 0 145 0 C145 16.83 145 33.66 145 51 C132.79 51 120.58 51 108 51 C108 111.39 108 171.78 108 234 C120.21 234 132.42 234 145 234 C145 250.83 145 267.66 145 285 C97.15 285 49.3 285 0 285 C0 267.84 0 250.68 0 233 C11.88 233 23.76 233 36 233 C36 173.27 36 113.54 36 52 C24.12 52 12.24 52 0 52 C0 34.84 0 17.68 0 0 Z " fill="#FEFEFD" transform="translate(299,113)"/>
</svg>
