<?xml version="1.0" encoding="UTF-8"?>
<svg version="1.1" xmlns="http://www.w3.org/2000/svg" width="1000" height="1000">
<path d="M0 0 C0.8898453 -0.00382555 1.77969059 -0.00765109 2.6965009 -0.01159257 C5.66647194 -0.02187878 8.63624807 -0.01793874 11.60623169 -0.01396179 C13.74041929 -0.01831069 15.87460534 -0.02349444 18.00878906 -0.02944946 C23.79806803 -0.04283169 29.58728167 -0.04341897 35.37657309 -0.04088616 C40.21253011 -0.0398159 45.04847395 -0.04470125 49.88442814 -0.04949158 C61.29496125 -0.06058415 72.70546143 -0.06102561 84.11599731 -0.05497742 C95.88063007 -0.04893733 107.64514324 -0.06125016 119.40975559 -0.08254749 C129.51696785 -0.10017051 139.62414208 -0.10616372 149.73136914 -0.10290974 C155.76505671 -0.10109783 161.79865897 -0.10372401 167.83233261 -0.11762428 C173.50736054 -0.13020927 179.18220222 -0.12825201 184.85722733 -0.11521339 C186.93687758 -0.11284953 189.01654096 -0.11557548 191.09617615 -0.12383652 C193.94144829 -0.13432164 196.78609751 -0.12618902 199.63134766 -0.11352539 C200.44858397 -0.12089968 201.26582029 -0.12827396 202.10782135 -0.13587171 C211.98560015 -0.04378086 218.6531193 3.06768493 225.77078247 9.84272766 C230.60328565 15.22279864 233.06581866 21.27444415 233.07145864 28.5013395 C233.07473083 29.59634961 233.07800303 30.69135973 233.08137438 31.81955197 C233.07989075 33.02971934 233.07840713 34.2398867 233.07687855 35.48672581 C233.07923078 36.77204375 233.08158301 38.05736169 233.08400652 39.38162866 C233.09042533 42.97249767 233.09056665 46.56334436 233.08972911 50.15421801 C233.08989824 54.0521419 233.09580022 57.9500577 233.10096997 61.84797758 C233.11031062 69.58952795 233.11422048 77.33107259 233.11648894 85.07262789 C233.11944721 94.34123807 233.12814241 103.60984062 233.13690322 112.87844681 C233.15776409 135.28384612 233.16822001 157.68924676 233.17703282 180.09465352 C233.181237 190.6903939 233.1864593 201.28613372 233.19171735 211.88187362 C233.20960899 248.13964969 233.2246058 284.39742591 233.23203754 320.65520573 C233.2325123 322.93220692 233.23298819 325.20920811 233.23346521 327.4862093 C233.23381977 329.18002216 233.23381977 329.18002216 233.2341815 330.90805346 C233.23538272 336.62936088 233.23659816 342.3506683 233.23782349 348.07197571 C233.23806364 349.20739475 233.23830379 350.34281379 233.23855121 351.51263947 C233.24644561 388.33258492 233.26987962 425.15249818 233.30237943 461.97242957 C233.33666305 500.88420207 233.35638733 539.79595573 233.35968179 578.70774359 C233.36009934 582.97790651 233.3605789 587.24806943 233.36110497 591.51823235 C233.36122816 592.56969613 233.36135135 593.62115991 233.36147827 594.70448624 C233.36381215 611.63927379 233.37948258 628.574024 233.39994681 645.50879824 C233.42018429 662.52568832 233.42569197 679.54253346 233.41617618 696.55943335 C233.4109531 706.67318992 233.41687673 716.78679709 233.43871085 726.90053221 C233.45219209 733.65473175 233.45116566 740.40882814 233.43830889 747.16302864 C233.4313944 751.01254928 233.43080333 754.86178376 233.44786898 758.71127916 C233.46610696 762.85899793 233.45337819 767.00605025 233.4376421 771.15377903 C233.4478643 772.34755823 233.45808651 773.54133743 233.46861848 774.77129176 C233.39599938 783.50983058 231.61084389 790.17994071 226.81765747 797.51069641 C220.72923309 803.33440669 214.00086381 807.34953062 205.48220444 807.41723251 C204.58556241 807.42665981 203.68892039 807.4360871 202.76510739 807.44580007 C201.78066608 807.451163 200.79622477 807.45652594 199.7819519 807.46205139 C198.72838273 807.47155154 197.67481355 807.48105169 196.58931804 807.49083972 C193.01408564 807.52159713 189.43884453 807.54506338 185.86355591 807.5683136 C183.26723776 807.5883987 180.67092178 807.6087648 178.07460785 807.6293869 C170.85572374 807.68533487 163.6367961 807.73263366 156.41784 807.7781992 C152.55457811 807.80260208 148.69132599 807.82828486 144.82807525 807.85438736 C62.94589809 808.4070484 -18.93793126 808.48177691 -100.82170868 808.4981308 C-105.3480072 808.49905359 -109.87430573 808.49998633 -114.40060425 808.50093079 C-116.08453843 808.50126758 -116.08453843 808.50126758 -117.80249149 808.50161117 C-136.34855711 808.50563053 -154.89458531 808.52338753 -173.44063625 808.54629031 C-192.78421372 808.56997795 -212.12777205 808.58246252 -231.47136426 808.58363223 C-242.21638203 808.58454277 -252.9613487 808.59015055 -263.70635223 808.60845184 C-272.74413001 808.6238067 -281.78184028 808.62899501 -290.81962863 808.62071374 C-295.41115971 808.61681083 -300.00255428 808.61772498 -304.59406853 808.63177109 C-308.79440023 808.64450711 -312.99449253 808.64331624 -317.19482389 808.63118038 C-318.70891925 808.62922487 -320.22303162 808.63229506 -321.73710307 808.64102474 C-335.4148199 808.71489609 -345.76080755 806.84875421 -356.05734253 797.26069641 C-364.3112481 786.95071042 -365.35500814 778.22958676 -365.32476807 765.395401 C-365.32850714 763.97414066 -365.33310969 762.55288237 -365.33849871 761.13162732 C-365.35071237 757.23511286 -365.35047018 753.33868436 -365.34810996 749.44215512 C-365.34770138 745.23615275 -365.3587449 741.03017779 -365.3682251 736.82418823 C-365.38482722 728.58706696 -365.39033429 720.34997431 -365.39144985 712.1128377 C-365.39240072 705.4159167 -365.39651296 698.71900512 -365.4028511 692.0220871 C-365.42046154 673.02771434 -365.42969031 654.03336417 -365.42819016 635.0389832 C-365.42811024 634.0153175 -365.42803033 632.99165181 -365.427948 631.93696594 C-365.42786624 630.91204777 -365.42778448 629.8871296 -365.42770024 628.8311533 C-365.42688744 612.22325083 -365.44602395 595.61543908 -365.47422473 579.00756285 C-365.50296436 561.94748444 -365.51676442 544.88745026 -365.51503718 527.82734704 C-365.51437364 518.25231358 -365.5198501 508.67737522 -365.54139328 499.10236359 C-365.55961929 490.94954725 -365.56394077 482.79686912 -365.55037443 474.64404121 C-365.54385188 470.48668602 -365.54370164 466.32959586 -365.56108093 462.17226601 C-365.57684855 458.36117022 -365.57391085 454.55054879 -365.55651267 450.73946431 C-365.55200818 448.71885553 -365.56707109 446.69823181 -365.58299196 444.67768073 C-365.49265225 432.70103675 -362.81669607 424.07150731 -354.41281128 415.42085266 C-344.4839101 406.31524346 -333.64662293 404.8047588 -320.5295105 404.92012024 C-318.55222206 404.91946312 -318.55222206 404.91946312 -316.5349884 404.91879272 C-312.95085847 404.9179384 -309.36703494 404.93547182 -305.78297567 404.9565146 C-302.02606895 404.97537623 -298.2691538 404.97703926 -294.51220703 404.98059082 C-287.4115715 404.98988361 -280.31107593 405.01445953 -273.21050179 405.04463929 C-265.12096357 405.0782699 -257.03141836 405.09469099 -248.94182754 405.10972559 C-232.31358417 405.14101187 -215.68548126 405.19371797 -199.05734253 405.26069641 C-199.06010791 404.42654583 -199.06287329 403.59239525 -199.06572247 402.73296738 C-199.1320875 382.39986996 -199.18167422 362.06679132 -199.21277905 341.73360825 C-199.22822241 331.90047557 -199.24926338 322.06741537 -199.28366089 312.23432922 C-199.3136409 303.65993996 -199.33293591 295.08560322 -199.33960801 286.511163 C-199.34350574 281.97457198 -199.35261277 277.43813114 -199.3745327 272.90158844 C-199.39503401 268.62361198 -199.40114902 264.34584624 -199.39666557 260.06782532 C-199.39748471 258.50544842 -199.4033686 256.9430638 -199.41495895 255.38072968 C-199.522815 240.07979357 -197.43666625 227.21917432 -186.93234253 215.51069641 C-180.04237303 209.00607196 -170.90129715 205.13162904 -161.48916626 205.14044189 C-160.35617096 205.13906723 -159.22317566 205.13769257 -158.05584717 205.13627625 C-156.19792038 205.14166916 -156.19792038 205.14166916 -154.30245972 205.14717102 C-152.99489716 205.14702499 -151.68733459 205.14687897 -150.34014893 205.14672852 C-146.75784166 205.14644162 -143.17556788 205.15232091 -139.59326839 205.15930247 C-135.84832364 205.16555398 -132.10337812 205.16614123 -128.35842896 205.16732788 C-121.26827811 205.17043589 -114.17814268 205.17864215 -107.08799863 205.18867737 C-99.0155102 205.19985495 -90.94302103 205.20535311 -82.87052679 205.21037281 C-66.26612301 205.22082519 -49.66173474 205.23841439 -33.05734253 205.26069641 C-33.0610297 204.33193506 -33.06471687 203.40317371 -33.06851578 202.44626808 C-33.15739023 179.82730317 -33.22308171 157.20836095 -33.26459122 134.58925819 C-33.28519946 123.65073559 -33.31328689 112.71232848 -33.35910034 101.77388 C-33.39902125 92.23777893 -33.42478797 82.70176152 -33.43369651 73.1655792 C-33.43890234 68.11816574 -33.4511018 63.07099156 -33.48026276 58.02365494 C-33.50751483 53.26795992 -33.51576777 48.51260162 -33.50977325 43.75683594 C-33.51086912 42.0162307 -33.51876449 40.2756136 -33.53416443 38.53507614 C-33.62222698 28.0639593 -32.97258076 19.64108464 -27.36984253 10.51069641 C-19.23682658 2.5974917 -11.09364759 -0.05102422 0 0 Z " fill="#ECBE2F" transform="translate(566.0573425292969,95.73930358886719)"/>
<path d="M0 0 C0.8898453 -0.00382555 1.77969059 -0.00765109 2.6965009 -0.01159257 C5.66647194 -0.02187878 8.63624807 -0.01793874 11.60623169 -0.01396179 C13.74041929 -0.01831069 15.87460534 -0.02349444 18.00878906 -0.02944946 C23.79806803 -0.04283169 29.58728167 -0.04341897 35.37657309 -0.04088616 C40.21253011 -0.0398159 45.04847395 -0.04470125 49.88442814 -0.04949158 C61.29496125 -0.06058415 72.70546143 -0.06102561 84.11599731 -0.05497742 C95.88063007 -0.04893733 107.64514324 -0.06125016 119.40975559 -0.08254749 C129.51696785 -0.10017051 139.62414208 -0.10616372 149.73136914 -0.10290974 C155.76505671 -0.10109783 161.79865897 -0.10372401 167.83233261 -0.11762428 C173.50736054 -0.13020927 179.18220222 -0.12825201 184.85722733 -0.11521339 C186.93687758 -0.11284953 189.01654096 -0.11557548 191.09617615 -0.12383652 C193.94144829 -0.13432164 196.78609751 -0.12618902 199.63134766 -0.11352539 C200.44858397 -0.12089968 201.26582029 -0.12827396 202.10782135 -0.13587171 C211.98560015 -0.04378086 218.6531193 3.06768493 225.77078247 9.84272766 C230.60328565 15.22279864 233.06581866 21.27444415 233.07145864 28.5013395 C233.07473083 29.59634961 233.07800303 30.69135973 233.08137438 31.81955197 C233.07989075 33.02971934 233.07840713 34.2398867 233.07687855 35.48672581 C233.07923078 36.77204375 233.08158301 38.05736169 233.08400652 39.38162866 C233.09042533 42.97249767 233.09056665 46.56334436 233.08972911 50.15421801 C233.08989824 54.0521419 233.09580022 57.9500577 233.10096997 61.84797758 C233.11031062 69.58952795 233.11422048 77.33107259 233.11648894 85.07262789 C233.11944721 94.34123807 233.12814241 103.60984062 233.13690322 112.87844681 C233.15776409 135.28384612 233.16822001 157.68924676 233.17703282 180.09465352 C233.181237 190.6903939 233.1864593 201.28613372 233.19171735 211.88187362 C233.20960899 248.13964969 233.2246058 284.39742591 233.23203754 320.65520573 C233.2325123 322.93220692 233.23298819 325.20920811 233.23346521 327.4862093 C233.23370158 328.61541787 233.23393796 329.74462645 233.2341815 330.90805346 C233.23538272 336.62936088 233.23659816 342.3506683 233.23782349 348.07197571 C233.23806364 349.20739475 233.23830379 350.34281379 233.23855121 351.51263947 C233.24644561 388.33258492 233.26987962 425.15249818 233.30237943 461.97242957 C233.33666305 500.88420207 233.35638733 539.79595573 233.35968179 578.70774359 C233.36009934 582.97790651 233.3605789 587.24806943 233.36110497 591.51823235 C233.36122816 592.56969613 233.36135135 593.62115991 233.36147827 594.70448624 C233.36381215 611.63927379 233.37948258 628.574024 233.39994681 645.50879824 C233.42018429 662.52568832 233.42569197 679.54253346 233.41617618 696.55943335 C233.4109531 706.67318992 233.41687673 716.78679709 233.43871085 726.90053221 C233.45219209 733.65473175 233.45116566 740.40882814 233.43830889 747.16302864 C233.4313944 751.01254928 233.43080333 754.86178376 233.44786898 758.71127916 C233.46610696 762.85899793 233.45337819 767.00605025 233.4376421 771.15377903 C233.4478643 772.34755823 233.45808651 773.54133743 233.46861848 774.77129176 C233.39599938 783.50983058 231.61084389 790.17994071 226.81765747 797.51069641 C220.08410325 803.9514874 213.3171841 807.38909512 204.0328064 807.38095093 C202.82408371 807.38232559 201.61536102 807.38370026 200.37001038 807.38511658 C199.03387426 807.38157771 197.6977384 807.3779429 196.36160278 807.3742218 C194.95216372 807.37393968 193.5427245 807.37409816 192.13328552 807.37466431 C188.3092513 807.37495129 184.48524844 807.36907054 180.6612215 807.36209035 C176.66403169 807.35584035 172.66684116 807.35525171 168.66964722 807.35406494 C161.10138128 807.35095649 153.53312979 807.34274964 145.96487021 807.33271545 C137.34825657 807.32153924 128.73164223 807.31604006 120.11502314 807.31102002 C102.39089306 807.30056663 84.66677643 807.28297658 66.94265747 807.26069641 C66.9424401 806.05491841 66.94222273 804.84914041 66.94199878 803.60682368 C66.93209037 750.46143103 66.91599296 697.31604324 66.86836243 644.17066956 C66.86764297 643.36595637 66.86692352 642.56124318 66.86618227 641.73214474 C66.85050921 624.24316928 66.83372683 606.75419505 66.81580185 589.26522176 C66.80701808 580.6885182 66.79847941 572.11181441 66.79006958 563.53511047 C66.78922853 562.68162956 66.78838749 561.82814865 66.78752095 560.94880468 C66.7603796 533.28964368 66.7494208 505.63050506 66.74686223 477.97133177 C66.74414723 449.54573583 66.7250897 421.1201965 66.68549632 392.69462687 C66.67991046 388.67886187 66.67451125 384.66309664 66.66922569 380.64733124 C66.66817966 379.85697824 66.66713362 379.06662524 66.66605589 378.25232215 C66.64970371 365.53455795 66.6505572 352.81685042 66.6578603 340.09908022 C66.6648363 327.31053452 66.65364913 314.52210649 66.62399457 301.73359236 C66.60843132 294.8056238 66.60084797 287.87787349 66.61606026 280.94989777 C66.6292063 274.60584737 66.61932701 268.26226268 66.59121975 261.91826478 C66.58510698 259.62466801 66.58740695 257.33102993 66.59902821 255.03745446 C66.67057077 239.71769629 66.26018682 227.77807699 55.04421997 216.16304016 C44.65685205 206.76034838 33.47383411 205.80517515 19.97000122 205.74897766 C18.43585293 205.73210525 16.90171825 205.71395161 15.36759949 205.69458008 C11.3580755 205.6473516 7.34860671 205.61736762 3.33889771 205.59114075 C-0.76399633 205.56119708 -4.86670067 205.51471469 -8.9694519 205.46968079 C-16.99865496 205.3839572 -25.02787583 205.31647555 -33.05734253 205.26069641 C-33.15086397 181.7035905 -33.22136006 158.14651249 -33.26459122 134.58925819 C-33.28519946 123.65073559 -33.31328689 112.71232848 -33.35910034 101.77388 C-33.39902125 92.23777893 -33.42478797 82.70176152 -33.43369651 73.1655792 C-33.43890234 68.11816574 -33.4511018 63.07099156 -33.48026276 58.02365494 C-33.50751483 53.26795992 -33.51576777 48.51260162 -33.50977325 43.75683594 C-33.51086912 42.0162307 -33.51876449 40.2756136 -33.53416443 38.53507614 C-33.62222698 28.0639593 -32.97258076 19.64108464 -27.36984253 10.51069641 C-19.23682658 2.5974917 -11.09364759 -0.05102422 0 0 Z " fill="#D49227" transform="translate(566.0573425292969,95.73930358886719)"/>
<path d="M0 0 C1.98522734 -0.00406982 3.9704524 -0.00941401 5.95567322 -0.01593018 C11.32547286 -0.02956064 16.69509882 -0.02432276 22.06490135 -0.01479292 C27.69630766 -0.00717418 33.32769953 -0.01424807 38.95910645 -0.01895142 C48.41433367 -0.02440252 57.8694905 -0.01723427 67.32470703 -0.00292969 C78.24131363 0.01339554 89.15775212 0.00810658 100.07435465 -0.0084089 C109.46318448 -0.02204214 118.85196384 -0.02393444 128.24080038 -0.0160929 C133.84131213 -0.0114265 139.44174497 -0.01076309 145.04225159 -0.02070236 C150.30859268 -0.02939648 155.57471795 -0.02330544 160.84103584 -0.00601959 C162.76868393 -0.00206781 164.69635032 -0.00316626 166.62399101 -0.00980759 C181.49837837 -0.05631246 193.19759169 0.86643607 204.58789062 11.42724609 C213.83006348 21.09650642 214.97800857 30.91468312 214.86968994 43.82717896 C214.87143653 45.3826125 214.87494305 46.93804488 214.88004661 48.49347103 C214.8889533 52.74662025 214.87304261 56.99936342 214.85293436 61.25246096 C214.83561136 65.8467379 214.84150949 70.44099315 214.84454346 75.03529358 C214.84663776 82.98823569 214.83412023 90.94104622 214.8115921 98.89395523 C214.77904179 110.3924114 214.76866198 121.89080415 214.76364014 133.3893014 C214.75489224 152.0461914 214.72829037 170.70301132 214.69042969 189.35986328 C214.65369652 207.47997691 214.62539114 225.60007148 214.60839844 243.72021484 C214.60734754 244.83771095 214.60629665 245.95520706 214.60521391 247.10656668 C214.59999365 252.71288694 214.59493884 258.31920733 214.5899663 263.92552781 C214.54852001 310.41312827 214.47808534 356.90065231 214.38867188 403.38818359 C184.6212982 403.45667302 154.85392718 403.50973926 125.08649165 403.54137958 C121.56937972 403.54513154 118.05226795 403.54901453 114.53515625 403.55297852 C113.83498488 403.55376545 113.13481352 403.55455238 112.41342483 403.55536316 C101.08756854 403.56840462 89.76175809 403.59205149 78.43592896 403.61964198 C66.80805495 403.64773129 55.18020763 403.66414286 43.55230129 403.67044908 C37.02382657 403.67435789 30.49545572 403.68353634 23.96701431 403.70537376 C17.81933357 403.72577051 11.67179927 403.73201087 5.52408791 403.72750664 C3.27069998 403.7283304 1.01730705 403.73427691 -1.23605156 403.74580002 C-4.31997062 403.76079381 -7.4033416 403.75711192 -10.48727417 403.74894714 C-11.3725186 403.75768567 -12.25776304 403.76642419 -13.16983306 403.77542752 C-24.41109223 403.69535 -33.36554964 400.066592 -41.61132812 392.38818359 C-49.86523369 382.07819761 -50.90899374 373.35707394 -50.87875366 360.52288818 C-50.88249274 359.10162784 -50.88709529 357.68036955 -50.89248431 356.2591145 C-50.90469796 352.36260004 -50.90445577 348.46617154 -50.90209556 344.56964231 C-50.90168697 340.36363994 -50.9127305 336.15766497 -50.92221069 331.95167542 C-50.93881281 323.71455414 -50.94431989 315.47746149 -50.94543545 307.24032488 C-50.94638632 300.54340388 -50.95049856 293.8464923 -50.9568367 287.14957428 C-50.97444714 268.15520152 -50.98367591 249.16085136 -50.98217575 230.16647038 C-50.98209584 229.14280468 -50.98201593 228.11913899 -50.98193359 227.06445312 C-50.98185183 226.03953495 -50.98177007 225.01461678 -50.98168583 223.95864049 C-50.98087304 207.35073802 -51.00000955 190.74292626 -51.02821033 174.13505003 C-51.05694996 157.07497162 -51.07075002 140.01493745 -51.06902277 122.95483422 C-51.06835924 113.37980076 -51.07383569 103.8048624 -51.09537888 94.22985077 C-51.11360488 86.07703443 -51.11792636 77.9243563 -51.10436003 69.77152839 C-51.09783748 65.6141732 -51.09768724 61.45708304 -51.11506653 57.29975319 C-51.13083415 53.4886574 -51.12789645 49.67803597 -51.11049826 45.8669515 C-51.10599377 43.84634271 -51.12105669 41.825719 -51.13697755 39.80516791 C-51.04663784 27.82852393 -48.37068166 19.1989945 -39.96679688 10.54833984 C-28.24584641 -0.20072419 -15.06246972 -0.0518949 0 0 Z " fill="#F6DD65" transform="translate(251.611328125,500.61181640625)"/>
</svg>
