<?xml version="1.0" encoding="UTF-8"?>
<svg version="1.1" xmlns="http://www.w3.org/2000/svg" width="280" height="280">
<path d="M0 0 C92.4 0 184.8 0 280 0 C280 92.4 280 184.8 280 280 C187.6 280 95.2 280 0 280 C0 187.6 0 95.2 0 0 Z " fill="#000000" transform="translate(0,0)"/>
<path d="M0 0 C2 2 2 2 2.375 5.3125 C1.93368342 9.65211305 1.00108563 10.91780394 -2 14 C-2.86625 14.928125 -3.7325 15.85625 -4.625 16.8125 C-7 19 -7 19 -9 19 C-9 19.66 -9 20.32 -9 21 C-12.38831296 24.68728175 -16.15965365 27.79971138 -20 31 C-22.68888162 33.55771666 -25.12323583 36.14788299 -27.5 39 C-30.78908993 42.94690792 -34.27454844 46.44262069 -38.25 49.6875 C-41.01742194 51.7042322 -41.01742194 51.7042322 -42 54 C-42.66 54 -43.32 54 -44 54 C-44.26167969 54.58910156 -44.52335937 55.17820313 -44.79296875 55.78515625 C-46.0642275 58.11785434 -47.40230531 59.60354368 -49.3125 61.4375 C-49.93769531 62.04464844 -50.56289062 62.65179688 -51.20703125 63.27734375 C-51.79871094 63.84582031 -52.39039063 64.41429688 -53 65 C-53.825 65.825 -54.65 66.65 -55.5 67.5 C-60.33333333 72.33333333 -65.16666667 77.16666667 -70 82 C-70.59167969 82.61488281 -71.18335938 83.22976562 -71.79296875 83.86328125 C-72.41816406 84.50652344 -73.04335937 85.14976562 -73.6875 85.8125 C-74.26886719 86.41707031 -74.85023437 87.02164063 -75.44921875 87.64453125 C-77 89 -77 89 -79 89 C-79.26167969 89.58910156 -79.52335937 90.17820312 -79.79296875 90.78515625 C-81.0642275 93.11785434 -82.40230531 94.60354368 -84.3125 96.4375 C-84.93769531 97.04464844 -85.56289062 97.65179688 -86.20703125 98.27734375 C-86.79871094 98.84582031 -87.39039063 99.41429687 -88 100 C-89.2375 101.2375 -89.2375 101.2375 -90.5 102.5 C-95.33333333 107.33333333 -100.16666667 112.16666667 -105 117 C-105.59167969 117.61488281 -106.18335937 118.22976562 -106.79296875 118.86328125 C-107.41816406 119.50652344 -108.04335937 120.14976562 -108.6875 120.8125 C-109.26886719 121.41707031 -109.85023437 122.02164063 -110.44921875 122.64453125 C-112 124 -112 124 -114 124 C-114.38091797 124.87398437 -114.38091797 124.87398437 -114.76953125 125.765625 C-116.95844694 129.74041793 -120.24422089 132.51196583 -124 135 C-127.8125 135.6875 -127.8125 135.6875 -131 135 C-133 133.375 -133 133.375 -134 131 C-133.74175608 125.59941189 -131.91653866 123.29495131 -128.14772034 119.53971863 C-127.637833 119.0248536 -127.12794566 118.50998857 -126.60260719 117.97952157 C-124.89460154 116.26095625 -123.16935762 114.56083529 -121.44360352 112.86010742 C-120.21412241 111.63039958 -118.98573495 110.39959747 -117.75836182 109.16778564 C-114.42456455 105.82828174 -111.0754859 102.50449602 -107.72333264 99.18343139 C-104.22023861 95.70787429 -100.73091143 92.21854972 -97.23997498 88.73078918 C-91.37774022 82.87775739 -85.50642206 77.03397232 -79.62866211 71.1965332 C-71.33169923 62.95643371 -63.05206386 54.69908881 -54.77542603 46.43858182 C-49.04851907 40.72411949 -43.31749925 35.01378253 -37.58569598 29.30423188 C-36.19401431 27.91791601 -34.80244722 26.53148511 -33.41099286 25.14494109 C-29.44645401 21.19468452 -25.47938093 17.24700931 -21.50810242 13.30352783 C-20.30350862 12.10667034 -19.09975224 10.90896935 -17.8968792 9.71038246 C-16.25999099 8.07968972 -14.6200704 6.45211126 -12.97926331 4.82536316 C-11.60128744 3.45574574 -11.60128744 3.45574574 -10.19547367 2.05845928 C-6.53767767 -1.37106221 -4.8126701 -1.10290356 0 0 Z " fill="#F7F7F7" transform="translate(196,63)"/>
<path d="M0 0 C1.875 1.125 1.875 1.125 3 3 C3.625 5.6875 3.625 5.6875 3 9 C0.92194313 11.92590407 -1.47140158 14.46057247 -4 17 C-4.52980469 17.57363281 -5.05960937 18.14726562 -5.60546875 18.73828125 C-7 20 -7 20 -9 20 C-9.22751953 20.55250931 -9.45503906 21.10501862 -9.68945312 21.67427063 C-11.38512791 24.68345766 -13.52326766 26.77000326 -15.96875 29.21166992 C-16.47301514 29.7178334 -16.97728027 30.22399689 -17.49682617 30.74549866 C-19.15970896 32.41207688 -20.82966609 34.07136114 -22.5 35.73046875 C-23.65856778 36.88784411 -24.8167658 38.04558972 -25.97460938 39.20368958 C-28.39926224 41.62677981 -30.82723395 44.04647713 -33.2578125 46.46362305 C-36.37688069 49.56567332 -39.48929708 52.67429424 -42.5994873 55.78524303 C-44.98918376 58.17466795 -47.38147464 60.56148061 -49.7746582 62.94741249 C-50.92354329 64.09311094 -52.07181978 65.23942001 -53.21948242 66.386343 C-54.82090407 67.98560266 -56.42557142 69.58152957 -58.03125 71.17651367 C-58.94455078 72.08600266 -59.85785156 72.99549164 -60.79882812 73.93254089 C-63.43860335 76.41195987 -64.32704847 76.94272753 -67.9375 77.25 C-71 77 -71 77 -72.875 75.875 C-74.65952249 72.90079585 -74.64846 71.43683798 -74 68 C-71.97179957 65.0314521 -69.52519353 62.54888203 -67 60 C-66.28199219 59.24460938 -65.56398437 58.48921875 -64.82421875 57.7109375 C-60.85238233 53.60113967 -60.85238233 53.60113967 -59 52 C-58.34 52 -57.68 52 -57 52 C-56.60748047 51.11634766 -56.60748047 51.11634766 -56.20703125 50.21484375 C-54.9357725 47.88214566 -53.59769469 46.39645632 -51.6875 44.5625 C-51.06230469 43.95535156 -50.43710938 43.34820312 -49.79296875 42.72265625 C-49.20128906 42.15417969 -48.60960937 41.58570313 -48 41 C-47.175 40.175 -46.35 39.35 -45.5 38.5 C-39.5 32.5 -39.5 32.5 -37.6796875 30.68359375 C-36.31859593 29.31933685 -34.96986467 27.94275584 -33.625 26.5625 C-31.35148758 24.34311883 -29.02269041 22.2692785 -26.625 20.1875 C-22.95177918 16.95360127 -19.72261819 13.54699255 -16.55859375 9.8203125 C-7.34713533 -0.93793217 -7.34713533 -0.93793217 0 0 Z " fill="#F7F7F7" transform="translate(208,134)"/>
</svg>
