<?xml version="1.0" encoding="UTF-8"?>
<svg version="1.1" xmlns="http://www.w3.org/2000/svg" width="1200" height="734">
<path d="M0 0 C1.86900719 -0.00855011 1.86900719 -0.00855011 3.77577209 -0.01727295 C6.4070655 -0.02667017 9.0383704 -0.03323577 11.66967773 -0.03710938 C15.59055717 -0.04670467 19.51088621 -0.07773408 23.43164062 -0.109375 C102.06060136 -0.43977088 176.45545126 24.2358518 236.72265625 75.203125 C237.70878906 76.01652344 238.69492187 76.82992187 239.7109375 77.66796875 C258.90031875 93.55617128 276.1762624 111.55946416 293.72265625 129.203125 C298.05140883 133.55567501 302.38191618 137.90645213 306.71664429 142.25305176 C308.42688693 143.96968467 310.13404999 145.6893376 311.84106445 147.40917969 C317.29477212 152.88848074 322.82436888 158.19885046 328.72265625 163.203125 C330.2882584 164.63724578 331.8512311 166.07424896 333.41015625 167.515625 C369.3374591 199.82829067 413.34951249 217.10759819 461.97265625 215.015625 C486.37403658 213.579659 510.54087987 207.03811925 531.95947266 195.17675781 C533.67283546 194.23063612 535.40657545 193.32171358 537.140625 192.4140625 C551.78244277 184.49501261 565.07737763 174.26822114 577.05859375 162.75 C579.18338175 160.71867774 581.32655065 158.81403091 583.59765625 156.953125 C586.62919195 154.39480463 589.15573933 151.54124629 591.71875 148.51953125 C593.63744689 146.30162237 595.62224218 144.15816131 597.62817383 142.01928711 C602.61838625 136.68617618 607.20818086 131.17943014 611.55004883 125.30395508 C614.5291521 121.29987707 614.5291521 121.29987707 616.72265625 120.203125 C616.11237846 127.83159744 613.94580135 134.90840157 611.72265625 142.203125 C611.52357666 142.86141296 611.32449707 143.51970093 611.11938477 144.19793701 C605.08112435 164.10100928 597.78091427 183.46986184 588.72265625 202.203125 C588.25907715 203.16299316 587.79549805 204.12286133 587.31787109 205.11181641 C574.92582621 230.46859655 559.54984618 253.92225176 540.21875 274.51953125 C538.09205803 276.80597473 536.05193064 279.13299584 534.03515625 281.515625 C530.57800789 285.48524476 526.74541979 288.82049971 522.72265625 292.203125 C521.79839844 293.01523437 520.87414062 293.82734375 519.921875 294.6640625 C502.34434457 310.02619672 482.76957947 322.21332882 461.72265625 332.203125 C459.98435547 333.04617188 459.98435547 333.04617188 458.2109375 333.90625 C419.69930935 351.72568443 375.98648691 360.15932034 333.69140625 360.44140625 C332.47365005 360.4512001 331.25589386 360.46099396 330.00123596 360.47108459 C326.07503274 360.49615048 322.14892514 360.50977584 318.22265625 360.515625 C317.55324383 360.51677559 316.88383141 360.51792618 316.19413376 360.51911163 C231.92479448 360.619702 153.30267418 336.04577552 89.72265625 279.203125 C88.82160156 278.40132812 87.92054688 277.59953125 86.9921875 276.7734375 C85.39614801 275.34318816 83.80475259 273.90772509 82.21981812 272.46517944 C80.66670502 271.05829172 79.10608091 269.65959469 77.53408813 268.27383423 C70.8867121 262.39475011 64.60315831 256.20334935 58.35371017 249.90934372 C56.51330737 248.05595662 54.6696056 246.20590518 52.82510376 244.3565979 C48.91310045 240.43327771 45.00507858 236.50600693 41.09765625 232.578125 C36.55653533 228.01327316 32.01372654 223.4501268 27.46666336 218.89119339 C25.66337746 217.08149654 23.86316452 215.26878232 22.06307983 213.4559021 C16.45589722 207.82388023 10.78667547 202.34708613 4.72265625 197.203125 C3.30369334 195.87223565 1.88670518 194.53923422 0.47265625 193.203125 C-35.67009042 160.7687459 -79.81450479 143.35016412 -128.52734375 145.390625 C-152.92774077 146.82328584 -177.09714332 153.36900349 -198.51416016 165.22949219 C-200.22752296 166.17561388 -201.96126295 167.08453642 -203.6953125 167.9921875 C-218.30590774 175.89435063 -231.59096499 186.09474862 -243.546875 197.58984375 C-245.85703085 199.80085128 -248.2098322 201.89211049 -250.65234375 203.953125 C-253.86603979 206.73832824 -256.62963868 209.7448952 -259.375 212.98828125 C-261.5487725 215.51914163 -263.81742236 217.94803789 -266.08984375 220.390625 C-270.37667697 225.07134795 -274.2766427 229.95225032 -278.05395508 235.05151367 C-281.07930321 239.10410473 -281.07930321 239.10410473 -283.27734375 240.203125 C-282.66706596 232.57465256 -280.50048885 225.49784843 -278.27734375 218.203125 C-278.07826416 217.54483704 -277.87918457 216.88654907 -277.67407227 216.20831299 C-271.63581185 196.30524072 -264.33560177 176.93638816 -255.27734375 158.203125 C-254.81376465 157.24325684 -254.35018555 156.28338867 -253.87255859 155.29443359 C-241.48051371 129.93765345 -226.10453368 106.48399824 -206.7734375 85.88671875 C-204.64674553 83.60027527 -202.60661814 81.27325416 -200.58984375 78.890625 C-197.13269539 74.92100524 -193.30010729 71.58575029 -189.27734375 68.203125 C-188.35308594 67.39101563 -187.42882812 66.57890625 -186.4765625 65.7421875 C-168.89903207 50.38005328 -149.32426697 38.19292118 -128.27734375 28.203125 C-127.11847656 27.64109375 -125.95960938 27.0790625 -124.765625 26.5 C-86.20258834 8.65677871 -42.35834504 0.15525243 0 0 Z " fill="#37BDF8" transform="translate(283.27734375,359.796875)"/>
<path d="M0 0 C1.86900719 -0.00855011 1.86900719 -0.00855011 3.77577209 -0.01727295 C6.4070655 -0.02667017 9.0383704 -0.03323577 11.66967773 -0.03710938 C15.59055717 -0.04670467 19.51088621 -0.07773408 23.43164062 -0.109375 C102.06060136 -0.43977088 176.45545126 24.2358518 236.72265625 75.203125 C237.70878906 76.01652344 238.69492187 76.82992187 239.7109375 77.66796875 C258.90031875 93.55617128 276.1762624 111.55946416 293.72265625 129.203125 C298.05140883 133.55567501 302.38191618 137.90645213 306.71664429 142.25305176 C308.42688693 143.96968467 310.13404999 145.6893376 311.84106445 147.40917969 C317.29477212 152.88848074 322.82436888 158.19885046 328.72265625 163.203125 C330.2882584 164.63724578 331.8512311 166.07424896 333.41015625 167.515625 C369.3374591 199.82829067 413.34951249 217.10759819 461.97265625 215.015625 C486.37403658 213.579659 510.54087987 207.03811925 531.95947266 195.17675781 C533.67283546 194.23063612 535.40657545 193.32171358 537.140625 192.4140625 C551.78244277 184.49501261 565.07737763 174.26822114 577.05859375 162.75 C579.18338175 160.71867774 581.32655065 158.81403091 583.59765625 156.953125 C586.62919195 154.39480463 589.15573933 151.54124629 591.71875 148.51953125 C593.63744689 146.30162237 595.62224218 144.15816131 597.62817383 142.01928711 C602.61838625 136.68617618 607.20818086 131.17943014 611.55004883 125.30395508 C614.5291521 121.29987707 614.5291521 121.29987707 616.72265625 120.203125 C616.11237846 127.83159744 613.94580135 134.90840157 611.72265625 142.203125 C611.52357666 142.86141296 611.32449707 143.51970093 611.11938477 144.19793701 C605.08112435 164.10100928 597.78091427 183.46986184 588.72265625 202.203125 C588.25907715 203.16299316 587.79549805 204.12286133 587.31787109 205.11181641 C574.92582621 230.46859655 559.54984618 253.92225176 540.21875 274.51953125 C538.09205803 276.80597473 536.05193064 279.13299584 534.03515625 281.515625 C530.57800789 285.48524476 526.74541979 288.82049971 522.72265625 292.203125 C521.79839844 293.01523437 520.87414063 293.82734375 519.921875 294.6640625 C502.34434457 310.02619672 482.76957947 322.21332882 461.72265625 332.203125 C459.98435547 333.04617188 459.98435547 333.04617188 458.2109375 333.90625 C419.69930935 351.72568443 375.98648691 360.15932034 333.69140625 360.44140625 C332.47365005 360.4512001 331.25589386 360.46099396 330.00123596 360.47108459 C326.07503274 360.49615048 322.14892514 360.50977584 318.22265625 360.515625 C317.55324383 360.51677559 316.88383141 360.51792618 316.19413376 360.51911163 C231.92479448 360.619702 153.30267418 336.04577552 89.72265625 279.203125 C88.82160156 278.40132813 87.92054688 277.59953125 86.9921875 276.7734375 C85.39614801 275.34318816 83.80475259 273.90772509 82.21981812 272.46517944 C80.66670502 271.05829172 79.10608091 269.65959469 77.53408813 268.27383423 C70.8867121 262.39475011 64.60315831 256.20334935 58.35371017 249.90934372 C56.51330737 248.05595662 54.6696056 246.20590518 52.82510376 244.3565979 C48.91310045 240.43327771 45.00507858 236.50600693 41.09765625 232.578125 C36.55653533 228.01327316 32.01372654 223.4501268 27.46666336 218.89119339 C25.66337746 217.08149654 23.86316452 215.26878232 22.06307983 213.4559021 C16.4561824 207.82413808 10.79020139 202.34264988 4.72265625 197.203125 C3.24074901 195.83107909 1.76118352 194.45649451 0.28515625 193.078125 C-35.51148275 160.98646538 -79.41095388 143.34033796 -127.83984375 145.328125 C-152.49391344 146.76160886 -176.86335595 153.23953483 -198.51416016 165.22949219 C-200.22752296 166.17561388 -201.96126295 167.08453642 -203.6953125 167.9921875 C-218.30590774 175.89435063 -231.59096499 186.09474862 -243.546875 197.58984375 C-245.85703085 199.80085128 -248.2098322 201.89211049 -250.65234375 203.953125 C-253.86603979 206.73832824 -256.62963868 209.7448952 -259.375 212.98828125 C-261.5487725 215.51914163 -263.81742236 217.94803789 -266.08984375 220.390625 C-270.37667697 225.07134795 -274.2766427 229.95225032 -278.05395508 235.05151367 C-281.07930321 239.10410473 -281.07930321 239.10410473 -283.27734375 240.203125 C-282.66706596 232.57465256 -280.50048885 225.49784843 -278.27734375 218.203125 C-278.07826416 217.54483704 -277.87918457 216.88654907 -277.67407227 216.20831299 C-271.63581185 196.30524072 -264.33560177 176.93638816 -255.27734375 158.203125 C-254.81376465 157.24325684 -254.35018555 156.28338867 -253.87255859 155.29443359 C-241.48051371 129.93765345 -226.10453368 106.48399824 -206.7734375 85.88671875 C-204.64674553 83.60027527 -202.60661814 81.27325416 -200.58984375 78.890625 C-197.13269539 74.92100524 -193.30010729 71.58575029 -189.27734375 68.203125 C-188.35308594 67.39101562 -187.42882812 66.57890625 -186.4765625 65.7421875 C-168.89903207 50.38005328 -149.32426697 38.19292118 -128.27734375 28.203125 C-127.11847656 27.64109375 -125.95960938 27.0790625 -124.765625 26.5 C-86.20258834 8.65677871 -42.35834504 0.15525243 0 0 Z " fill="#37BDF8" transform="translate(583.27734375,-0.203125)"/>
</svg>
